/* XPM */
static char *ba0b49df828f4ad19298dd1eb6b6a863IiE7qh1rYNDNawjt[] = {
/* columns rows colors chars-per-pixel */
"64 64 185 2 ",
"   c #0A0B0D",
".  c #17130F",
"X  c #1A140F",
"o  c #0D0E10",
"O  c #0F1115",
"+  c #0F131B",
"@  c #121314",
"#  c #1C1712",
"$  c #1E1914",
"%  c #12151B",
"&  c #15181D",
"*  c #1A1A1D",
"=  c #231C15",
"-  c #251F19",
";  c #292017",
":  c #26211C",
">  c #2B241C",
",  c #30271E",
"<  c #34291F",
"1  c #121721",
"2  c #151A23",
"3  c #191C22",
"4  c #161D2C",
"5  c #191F2A",
"6  c #161F31",
"7  c #131F38",
"8  c #1D2126",
"9  c #17202F",
"0  c #1B212D",
"q  c #162134",
"w  c #1A2334",
"e  c #15223B",
"r  c #19253C",
"t  c #1C293E",
"y  c #262423",
"u  c #2A2622",
"i  c #2D2925",
"p  c #22252C",
"a  c #25282F",
"s  c #2F2C29",
"d  c #302720",
"f  c #342C24",
"g  c #382F25",
"h  c #322E2A",
"j  c #3A3126",
"k  c #36312A",
"l  c #3C342B",
"z  c #212731",
"x  c #242935",
"c  c #292C33",
"v  c #242C3C",
"b  c #282E3C",
"n  c #2A313E",
"m  c #363433",
"M  c #3B3733",
"N  c #3C3834",
"B  c #33373E",
"V  c #3D3C3A",
"C  c #41372B",
"Z  c #43392E",
"A  c #453C32",
"S  c #443E39",
"D  c #4A4136",
"F  c #46413C",
"G  c #4C443B",
"H  c #4F483E",
"J  c #51463B",
"K  c #52493E",
"L  c #172644",
"P  c #182743",
"I  c #1B2A44",
"U  c #162649",
"Y  c #182749",
"T  c #1B2C4B",
"R  c #1E314E",
"E  c #1C2E52",
"W  c #1E3153",
"Q  c #1E3359",
"!  c #232E44",
"~  c #202F4A",
"^  c #253145",
"/  c #2C3443",
"(  c #22324C",
")  c #2E374B",
"_  c #2C394D",
"`  c #333945",
"'  c #3B3E45",
"]  c #343D4B",
"[  c #223454",
"{  c #293754",
"}  c #273856",
"|  c #2B3A55",
" . c #21355C",
".. c #24395C",
"X. c #2B3C5B",
"o. c #353F51",
"O. c #313F5B",
"+. c #213761",
"@. c #253B62",
"#. c #2B3F63",
"$. c #3C424D",
"%. c #2F415E",
"&. c #374151",
"*. c #394355",
"=. c #32415E",
"-. c #3B465A",
";. c #3D495C",
":. c #2E4267",
">. c #344463",
",. c #3F4C63",
"<. c #444443",
"1. c #4B4641",
"2. c #4E4A44",
"3. c #41454D",
"4. c #4D4C4B",
"5. c #554D42",
"6. c #584F43",
"7. c #554F49",
"8. c #575047",
"9. c #5A5146",
"0. c #55514B",
"q. c #5D554A",
"w. c #5F584F",
"e. c #434850",
"r. c #414A5E",
"t. c #545453",
"y. c #5B5752",
"u. c #5E5952",
"i. c #5D5D5C",
"p. c #60574B",
"a. c #62594E",
"s. c #645D53",
"d. c #695F52",
"f. c #645F59",
"g. c #676055",
"h. c #696155",
"j. c #66615A",
"k. c #6D655A",
"l. c #6F685D",
"z. c #70675A",
"x. c #726A5E",
"c. c #796E5D",
"v. c #7B705F",
"b. c #414E64",
"n. c #47566E",
"m. c #636464",
"M. c #6E6A63",
"N. c #626469",
"B. c #6A6B6C",
"V. c #756E62",
"C. c #786F61",
"Z. c #736F68",
"A. c #777064",
"S. c #7A7266",
"D. c #77736C",
"F. c #7D7669",
"G. c #7F786C",
"H. c #6E6F72",
"J. c #797670",
"K. c #7E7A74",
"L. c #817769",
"P. c #827A6D",
"I. c #837D70",
"U. c #847D70",
"Y. c #867E71",
"T. c #847E72",
"R. c #817F79",
"E. c #878073",
"W. c #878174",
"Q. c #898173",
"!. c #898275",
"~. c #8A8275",
"^. c #8B8477",
"/. c #84817A",
"(. c #8C8679",
"). c #8D8679",
"_. c #8F887B",
"`. c #90877A",
"'. c #918A7D",
"]. c #948E81",
"[. c #979184",
"{. c #999285",
"}. c #9C9689",
"|. c #9F9A90",
" X c #A09A8E",
/* pixels */
"_.F.S.Z.Z.Z.C.9.8 ] &.] &.&._ _ 2.L.v.v.v.x.g.k.h.k.x.x.l.x.k.A > 5.J q.h.h.h.x.z.x.C.A.x.x.z.9.q.L.P.C.S.~.G.l.] ~ W } ( ^ _ &.",
" X).]._.~.^.^.p.* { :.:.:.X.@...4.P.`.^.^.L.L.G.G.P.^.).)._.~.J u x.F.S.F.C.S.L.T.T.~.~.T.T.T.a.5.S.I.^.).P.S.V.*.I E T W ......",
"|.T.'.^.~.P.F.K & !  .@...@...[ <.G.P.P.S.x.A.A.G.F.I.~.).'.L.D - K A.v.x.k.C.F.P.P.P.L.S.L.P.p.F C.I.W.).P.S.A.*.T E T R W W W ",
"{.T.^.T.T.T.).p.3 ~  . ...Q ..[ V F.W.S.x.x.x.A.G.T.I.E.T.T.v.Z - K x.S.x.C.S.F.L.P.P.F.L.F.L.9.5.P.T.I.T.T.I.I.,.W E E W W W } ",
"Z.V.T.^.T.).).p.3 R W ..+...Q T m A.T.L.l.V.A.C.A.T.W.T.I.G.x.j = J z.F.S.C.F.P.L.P.F.L.L.S.L.6.G A.P.G.G.P.T.T.,.Q W W W W Q R ",
"y.x.^.I.I._.).a.3 R [ W Q Q [ q i x.L.S.C.x.V.x.C.G.T.I.F.F.l.j $ J x.F.S.C.A.F.L.S.F.C.C.c.S.6.D x.G.G.L.^.W.G.,.+.Q W W Q ..t ",
"y.d.C.C.C.L.F.9.* I I R [ R R q : a.C.x.S.A.x.S.V.I.T.I.A.V.k.g $ 5.A.F.F.x.x.A.x.x.F.S.C.V.c.K G A.A.S.F.P.P.F.;.Q E R R R W t ",
"2., g g g g g u @ & % & & & & @ : w.l.k.A.A.x.A.S.G.I.F.V.V.k.j = 9.S.S.x.A.S.x.x.F.P.T.T.F.L.p.l g.M.f.g.8.s.5.0 w 8 % 9 0 0 & ",
"e.! / / / / / z y u.f.u.u.u.f.1., q.A.x.S.A.x.x.V.S.C.F.S.S.V.C $ 5.x.V.A.F.F.F.F.E.^.Q.Y.Y.P.a.z { X.[ ! v ^ w s k.s.q.g.l.k.9.",
"e.{ #.#.#...{ z h I.[.^.~.].].h.g s.V.A.S.A.x.A.C.Z.F.S.C.S.C.C # H A.A.A.S.L.G.L.^.^.Q.P.^.^.h.v  . .Q E W [ w , F._.Q.I.).'.x.",
"$.~ [ E Y E T 6 u V.W.I.I.E.~.h.A h.x.x.A.S.C.S.L.S.F.F.L.L.V.C $ K A.A.c.S.E.E.Q.Q.^.^.P.`.).d.!  .Q Q E Q ( q i x.).E.E.`.).k.",
"' P W Y Y Y T 6 i A.~.P.F.F.G.C.J k.S.A.S.F.A.F.P.Z.Z.Z.I.F.z.C $ D l.A.F.L.E.Q.^.~.^.^.P.T.~.d.v  .Q Q  .Q W q s S.^.Q.E.Q.Q.s.",
"$.~ E Y U P T 6 i C.P.F.F.L.P.F.9.k.S.F.G.T.F.S.F.x.x.F.L.F.V.g $ g J l.P.`.'.`.'.`.).~.Q.T.~.d.v E T E Q Q W q u A.Q.).Q.`.`.z.",
"o.P E Y Y U I 6 i V.L.T.S.S.L.A.5.h.S.S.S.F.G.S.F.S.S.P.P.S.V.j = < < Z h.L.`.'.[.`.^.`.^.T.T.p.b E Y Y T ....r k S.Q.Q.Q.^.Q.h.",
"$.7 Y ~ P r r 4 u s.A.L.A.S.G.x.5.k.S.S.C.C.S.V.z.a.p.p.p.9.K f $ g > = , J a.S.S.A.A.F.F.L.L.9.z P P r I R W q l A.c.c.v.v.v.a.",
"' + 4 4 4 + + O $ g Z J 9.p.h.q.D a.d.q.0.6.6.A g f > ; = = = = . > > = # ; , C l F A A A H 1.M & & % @ + 2 & & > l j j g < j j ",
"7.7.f.s.q.7.a.y.9.J q.g.s.g.k.h.l.I.^.G.E.E.W.V.` r w ! / x / x h k.l.j.f.s.f.j.-.O.O.>.=.=.>.| m K C M Z p.s.q.a.s.h.6.C l K Z ",
"y.M.L.P.L.F.T.T.Q.E.W._._.E.^.x.g.E.^._._._.^.K.,.T ~ [  .[ ..v m T.].].'.).}.].b. .Q  . .W [ I N P.].].`.^.`.~.F.P.'.~.S.A.S.K ",
"y.d.V.S.F.F.L.L.E.).E.).^.Q.^.h.w.P.^.^.E.P.P.P.*.U U U L L P 6 h C.Q.^.'.].|.].,.+.+.Q Q R T t h x.^.`.`.^.Q.T.S.x.F.S.x.C.z.A ",
"a.f.S.L.T.P.T.F.T.).)._.^.^.^.k.s.E.^.E.F.G.F.G.;.Y U U Y Y E 6 h F.Q.'.{.{.}.{.b.Q Q  .T T W t m A.Y.Y.`.'.).).T.A.x.F.C.x.z.K ",
"s.j.P.T.Y.^.'.T.P.P.E._._.^.Q.x.k.E.G.L.G.E.P.T.-.E E E U E E q h Z.).].].].~.].n.Q E E Q Q W I m c.Y.~.'. X`.~.F.x.S.L.F.x.x.9.",
"s.k.P._.`.^.].^.P.E.P.)._.W.^.x.l.T.G.T.T.^.).W.;.E Q E E E W q > C.'.].{.].T.F.,. .Q Q Q Q Q I N V.T.P.~.`.).L.l.k.S.P.P.x.C.9.",
"u.f.P.^.).~.^.T.I.K.I.W.W.I.E.x.h.P.F.T.P.W._.~.r.T Q E E E T 0 u k.Q.^._.^.I.S.-. .Q Q E Q W I m Z.P.L.Y.Y.~.P.k.x.x.G.L.V.x.5.",
"u.k.L.Y.^.T.P.T.I.F.G.P.E.E._.S.j.M.M.D.J.K.K.J.*.X.X.| X.I 1 + # C 6.9.5.7.Z.s.a X.X.X.{ | { t m F.^.T.Y.c.L.L.A.x.x.Z.S.P.F.9.",
"y.l.~.~.Q.T.x.S.P.E.G.P.E.P._.F.&.| { | %.%.%.>.N.K.R.R./.k.8.D * b ! ! ! ( | _ t.K.R.D.F.J.c.s.D F.Q.E.P.A.A.A.x.F.L.L.P.E.G.q.",
"0.h.~.~.Q.Q.F.S.T.E.F.G.P.G.^.h./ R R W Q R I ..B.Q._.].).P.P.q.3 ~ Q  .+.@.@.[ m.`.Q.Q.).).E.L.8.F.G.E.S.l.l.A.x.F.Q.^.L.G.A.9.",
"0.w.P.F.P.P.P.F.P.E.P.G.F.F.E.a.b W W W W R R r <.S.^./.F.A.G.K & r E  .Q  .@.~ f._.^.Q.E.E.E.P.8.S.E.F.A.x.l.A.A.F.~.^.S.V.A.q.",
"w.h.W.F.Q.P.F.L.P.E.Q.S.G.G.G.q.v R W R R R R 4 : l.E.E.F.F.G.9.& P E Q E  .+. .B._.`.^.Q.E.Q.Q.q.S.P.G.S.x.A.c.A.S.A.A.A.V.C.D ",
"0.s.Q.L.^.^.L.P.P.E.Q.F.P.P.G.q.x R R T R T R 4 i Z.^.G.S.G.E.K 2 Y E E Q Q  .+.H.^.^.Q.E.E.F.G.a.F.S.S.S.A.S.S.x.P.S.v.V.A.h.l ",
"2.9.a.h.P.^.^.T.P.G.E.Q.Q.Q.G.9.0 I T I I Y T 0 i A.Q.I.A.S.E.9.3 ~ Q  . . .+.{ H.'._.Q.Q.F.S.S.p.F.S.S.x.x.l.l.V.S.c.v.l.s.K < ",
"F j j Z 9.h.L.L.F.L.S.P.E.E.S.5.0 I I I I I I 0 i h.c.x.l.l.x.8.* ^ ~ W ~ ~ W ~ t._.'.`.^.Q.~.A.K l.x.S.l.g.s.a.K K K K D j C > ",
"V # # = = , l C l l C C Z Z C , & t & + & + % + @ i f f i f g > o % % @ 1 & 2 @ k M.E.K.D.D.J.g.l l D Z l g < < ; = = = # X # X ",
"F s l D D l G q.g.k.k.h.d.h.d.K H A.s.q.u.u.u.G 3 n n n n n &.z y 0.s.F q.f.s.0.n | %...X._ _ ^ N w.a.q.q.9.9.u.5.k l k h h g , ",
"2.u.^.'.'.E.G./._.{.'.'.`.'.^.h.9.E.^.Q.^.^.^.a.8 R } } } } %.t : a.C.F.T.'.].k.0 R W T E W T P V S.E.G.P.F.F.P.P.S.P.E.F.F.l.Z ",
"F 8.E.E.G.F.A.F.E.)._._._.Q.E.9.D F.W.I.~.W.).q.3 I W R I I t 5 u s.S.E.T.~.`.9.& I W E Y P T r m V.S.V.F.F.x.S.x.l.S.I.A.l.5.j ",
"F 5.E.G.S.S.F.F.G.Q._.).`.).Q.p.l G.~.E.I.^.).a.3 ( W R R R R q s Z.T.P.T.~.T.p.2 P E E T P I t m C.G.S.A.F.P.F.S.G.P.P.A.C.x.k ",
"2.8.G.S.S.G.G.S.S.Q.Q.~.Q.Q.).a.H F.Q.E.W.Q.).a.3 R R T W W R 9 u l.G.P.F.F.L.9.& I I R R P I I m l.G.P.G.G.P.Q.).^.G.F.A.A.l.g ",
"5.q.G.S.l.A.F.A.x.F.E.).Q.P.Q.d.q.G.Q.G.^._.^.a.8 R R R R R R 9 u Z.E.P.L.P.T.q.& t P I I I T t h h.G.S.P.P.Q.^.'.^.P.G.V.l.k.k ",
"j.A.E.P.F.l.D.E.~.I.~.T.L.E.'.s.9.^.E.v.^.E.G.d.a R R t I t t 9 u l.T.F.C.C.A.6.& w e t I R R q i g.F.G.A.F.P._.`._.^.P.x.x.x.Z ",
"j.S.~.F.F.S.G.I.).E.E.E.E.Q.Q.a.G Z.K G K D j N p t 4 1 9 2 8 3 * g l M g f g > O % + 2 ^ [ 0 % y s.F.F.C.A.S.[.[._.'.I.A.C.x.9.",
"j.l.D.F.P.E.Q.E./.E.^.'.^.W.P.K 8 ^ w r t t ^ ^ <.g.0.8.g.g.s.a.B w I ! v b n 0 i 0.0.8.k.A.j.D h w.F.S.S.F.G.[.}.]._.~.F.S.A.q.",
"i.l.P.P.E.E.Q.G.I.R./.[.'.^.G.j % t P T R } %.R 0.G.F.A.I.I.E.I.r.[  .[ Q ..} w s A.I.F.F.E.^.s.f w.F.F.E.W.G.~.^._.).~.W.F.F.q.",
"u.x.^.E.Q.K.F.G.F.I.[.[.'._.F.j % I R T R W Q R t.E.G.F.G.I.I.G.&.T E T Y W R 9 y l.G.G.G.F.E.K > q.D.E.G.D.D.E.G.G.).~.I.E.E.q.",
"i.A.E.^.~.I.A.F./._.{.].'.'.S.j & I I t I R W [ m.I.G.F.I.I.G.F.*.T E T W W W q i A.E.F.G.G.E.9.: K S.~.G.A.F.W.P.P.~.E.F.I.S.8.",
"s.x.^.Q.Q.~.G.F.I.)._._._._.E.l & t P P T R W R m.G.G.I.J.A.A.Z.&.I Y R R E W q i A.Q.E.E.I.Q.q.= 9.L.^.Q.G.P.W.G.K.).E.F.G.A.G ",
"0.w./.).E.E.I.J.G.G.G.P._.'.c.j % e t e T R I I i.F.G.W.I.V.F.A.*.E T Y T E W w i V.Q._.E.E._.a.> 9./.I.S.L.~.~.E.F.E.P.G.G.l.D ",
"2.K k.c.S.F.A.A.x.l.k.a.q.q.9.j + 9 2 4 e t t t 0.A.E.I.S.V.F.V.) I T U Y W R 9 i s.l.F.F.F.E.9.> G a.9.K K p.p.s.q.9.q.q.9.K j ",
"F > > j l G 8.D j j i > ; ; ; $       o % + O + , K q.q.K 8.K D * 4 0 0 9 + + % $ i g l j g j g $ < > ; = = > > > > ; ; = $ ; $ ",
"u.y.g.g.a.F.L.h.c w w v n n n 8 * D l h f f g F w.k.s.q.q.a.s.D u w.g.u.u.u.w.s.g.K J D Z D J l f g.j.j.f.f.f.F * n n a 4 n x 8 ",
"g.A.'._.`.^.L.g.x I I I R ^ ^ 4 : h.G.c.c.x.l.x.P.).P.S.S.I.I.9.l l.P.G.G.G.W._.Q.F.P.`.'.^.^.D l F._.]._.].^.a.3 ^ [ ( w t ^ ^ ",
"w.a.).G.A.P.G.p.3 r e e e e q + # s 8.V.x.l.k.l.A.A.S.A.F.S.F.K s h.x.A.A.A.G.G.S.S.^._.`.`.L.C i l.I.E.E.G.P.9.& t I I I q t w ",
"i.l.E.A.x.A.A.5.% q q e e P r + $ F w.g.l.V.A.x.l.A.l.A.F.F.S.8.h k.A.S.S.A.V.F.P.F.^.`._.^.L.C h A./.W.E.G.E.a.3 R I T T T r w ",
"s.x.P.F.v.x.x.D % e e L Y L r 2 $ w.F.A.g.l.F.A.A.x.l.A.A.A.S.H g F.~.G.G.S.S.G.E.E.P.G.E.E.S.l h A.^.)._.).E.a.3 t I T T T I 4 ",
"f.x.L.P.F.x.x.J % I e L Y P P 9 $ 8.S.S.x.l.l.c.A.V.A.S.A.l.A.K l E.^.G.G.F.E.P.E.E.P.P.P.I.L.C j A.Q.^._.).Q.a.3 r I T T T R r ",
"w.q.x.S.v.h.s.D * q r r r t r 4 # 8.A.C.G.L.S.x.A.S.A.F.F.S.l.H l G.W.S.S.G.G.E._.^.E.E.E._.E.Z i k.A.A.F.G.P.q.* I I r t I I w ",
"F i g g f , > : o + % % @ % % o # 5.A.G.G.L.S.S.x.S.A.V.A.D.x.G l P._.E.P.P.E.^._.).P.E.).'.^.J : f h f g l l g * x 4 + % % % @ ",
"3.v n ) ) ) / x : y.t.u.u.g.i.S = 9.F.P.Q.L.G.F.x.S.S.l.S.G.x.J N E.'.'.^.).Q.^.^._.^.^.]._.].g.p v t v n / ) v <.F.g.q.u.w.w.H ",
"3.^ [ } #.:.| w s S.E.).).~.E.q.: p.Q.P.Q.Q.G.L.E.P.S.l.P.L.F.9.l E.'.Q.E.Q.~.~.~.E._._./._._.g.b [ R T ( .... .m.W.[.'.'.E.G.w.",
"' w I Y T R R 0 u l.I.I.G.G.G.q.: q._.Q.E.Q.F.A.S.A.l.l.C.F.Q.6.j F._.P.G.).^.E.E.^._._.^.E.P.w.v I E U I E T I m.F.Q.^.`.G.x.5.",
"' q P P Y T R q i l.E.G.P.Q.).q.; q.^.^._.^.S.S.A.A.V.V.l.V.F.G f V.^.E.E.^.~.E.P.I.^.^.E.G.L.a.v E E T E E E I i.V.P.).^.P.C.9.",
"' e U P P Y R 0 i A.E.P.E.E.^.9.> 9.P.P.E.P.L.F.A.x.A.A.V.C.S.J f k.^.~.E.E.P.E.T.L.I.E.P.T.~.s.v W Q T I E T Y i.F.G.~.Q.Q.L.9.",
"' r P P T T R q i V.P.G.E.)._.9.> a.E.^.E.E.E.F.A.x.F.G.S.S.S.Z > h.P.P.E.E.E.E.T.P.F.P.P.P.T.h.^ W T E T R Y I i.G.S.P.E.P.L.9.",
"' w r r r I t 8 y g.l.a.h.F.P.9.k x.P.P.P.P.S.g.a.l.x.l.z.k.h.C = G 9.h.S.F.G.A.x.k.h.k.C.x.C.q.v ( T T T R I T i.P.G.~.P.A.x.K ",
"<.2 3 2 1 8 8 4 : A Z j l D K 8.j K 9.8.J G D l l A A Z Z A A f $ > > l A D D A A A C A A A A A x [ [ I w I ( _ 4.G.^.I.q.D A Z "
};
