/* XPM */
static char *_c6dd3c16c7442599abecd91a3f18f71eGi5df8PYohS4FRj[] = {
/* columns rows colors chars-per-pixel */
"64 64 122 2 ",
"   c #6E645B",
".  c #756C64",
"X  c #7C6F65",
"o  c #777066",
"O  c #787167",
"+  c #757169",
"@  c #7C746C",
"#  c #7F786F",
"$  c #7B7770",
"%  c #7E7A73",
"&  c #826F61",
"*  c #867265",
"=  c #897566",
"-  c #80766C",
";  c #8A776B",
":  c #82786E",
">  c #8D7A6D",
",  c #937C6F",
"<  c #807770",
"1  c #837C74",
"2  c #8A7E74",
"3  c #847F78",
"4  c #8B7F78",
"5  c #927D72",
"6  c #858077",
"7  c #8B8176",
"8  c #86817A",
"9  c #8C847C",
"0  c #8F887F",
"q  c #948273",
"w  c #9D8574",
"e  c #9F8876",
"r  c #92857E",
"t  c #9B867B",
"y  c #92897E",
"u  c #9D8A7C",
"i  c #A08774",
"p  c #A18976",
"a  c #A38C7A",
"s  c #AA8D7E",
"d  c #A7907F",
"f  c #AA917F",
"g  c #8D8781",
"h  c #8E8A83",
"j  c #938680",
"k  c #9E8780",
"l  c #948B83",
"z  c #9C8C82",
"x  c #938E89",
"c  c #998F88",
"v  c #969087",
"b  c #9B9186",
"n  c #95918C",
"m  c #95938E",
"M  c #97938E",
"N  c #97948F",
"B  c #97958F",
"V  c #999288",
"C  c #989289",
"Z  c #999389",
"A  c #99928A",
"S  c #9B938A",
"D  c #9A948A",
"F  c #9B958B",
"G  c #9C948A",
"H  c #9B938C",
"J  c #99938E",
"K  c #9A948F",
"L  c #9A968F",
"P  c #9C958D",
"I  c #9C968C",
"U  c #9D968C",
"Y  c #9D978F",
"T  c #9E978E",
"R  c #979590",
"E  c #9B9590",
"W  c #9A9691",
"Q  c #9A9791",
"!  c #9C9691",
"~  c #9D9691",
"^  c #9C9791",
"/  c #9D9792",
"(  c #9D9892",
")  c #9F9994",
"_  c #9F9A94",
"`  c #A58F82",
"'  c #A68F82",
"]  c #A38C85",
"[  c #AB8F80",
"{  c #AC8F80",
"}  c #A68F88",
"|  c #A69181",
" . c #A79082",
".. c #A39084",
"X. c #A49185",
"o. c #A59287",
"O. c #A69487",
"+. c #AB9081",
"@. c #AD9181",
"#. c #AE9181",
"$. c #AD9182",
"%. c #AD9483",
"&. c #A99386",
"*. c #A99487",
"=. c #AF9887",
"-. c #A59388",
";. c #A2938C",
":. c #A8908A",
">. c #A9968A",
",. c #A9978A",
"<. c #A5998D",
"1. c #A99B8F",
"2. c #B09887",
"3. c #B19988",
"4. c #A29691",
"5. c #A39B95",
"6. c #AA9D91",
"7. c #A49F98",
"8. c #ADA195",
"9. c #A6A19A",
"0. c #A8A39C",
"q. c #B1A498",
/* pixels */
"1 W M M M n n M n n n G Y W M n c v M M n n n F n n n n F n j B _ ( P W W A / / ^ W ^ ^ ^ 4.^ E ^ ^ A / W ^ W W W W A x R l h A ",
"1 Y Y F Y G V F G S P G F P P P F Y F F G x F F F F V F P v h ( ( ( ( Q x P W W W H ^ E W ^ ^ V E ^ H E Y ^ ^ ^ ^ W M E W x 9 M ",
"1 F F F G G Y G G F F V V P F F P V G F Z b F V V P F S V y 9 W Q Q Q G E E ^ Y ^ ^ ^ 4.^ ^ ^ E E ^ ^ ^ ^ ^ ^ / / / W P A x 8 h ",
"1 Y F V V G Y G G F V F V V F P Y F U V b F F F G V V G F l g W Q P ( Q A A W W ^ ^ E E ^ ^ ^ A E ^ ^ ^ ^ ^ 5.^ 5.4.W E Y M 8 x ",
"% Y G V A Y Y G F G Y G P b F F G U V Y b Z Z Z G G F F F y 9 R ^ / ^ ^ E E H W ^ ^ ^ ^ ^ ^ / A H ^ / / W / W ^ W ) W P W M g n ",
"1 V Y G V F Y G V G Y G P n F F F F G G U Z Z Z F P F G V l 9 B ^ / ^ ^ / W E ^ ^ W ^ ^ W ^ W Y E ^ / / / / ) ^ W A ^ W W ( j n ",
": Y V Y G F G ^ G ^ Y V V F F F F Z Z F U Z Z Z V V P G V l 9 Y ^ 4.^ E E ^ ^ 4.W 5.^ ^ W E W ( 4.5.^ 5.) ^ 4.) ( W F Q W P h v ",
": P ^ G G Y Y V V F V Y G Y Y V F G G F Z U C C P F n V V c 9 R ^ 5.4.^ E ^ ^ ^ 5.4.^ ^ ^ 4.W W ^ 4./ / W / ) ) ^ Y W W W F 0 M ",
": Y Y Y Y Y A V Y G G F V F G F C Q C F F C n C F F P B C 0 8 n / 5./ / E E R / / 5./ ) ) W ) W 5./ W 5.W ^ W W W E W W A E 8 x ",
"@ V V V n V A V A V n V V c c v v v C F C v n n v 8 6 1 % $ @ % 3 8 8 h x l x l x x l x l g 3 g 8 8 8 3 3 1 8 8 3 1 1 3 3 % $ g ",
"O j 0 g 9 9 0 0 h 9 j h 9 1 @ 1 9 9 9 9 9 9 9 9 8 1 6 % 6 8 0 8 8 8 g h x x x l x x x x h 3 3 g g h 9 3 8 8 9 g 8 8 8 8 8 9 9 9 ",
"; | ' ' #.a ' s a ' | +...y 8 g n R n n n n m v n B m n n R m m R R R R R R x R M M R R M h z &.:.-.-.-.-.>.>.1.>.:.` ` X.X.` >.",
"; [ { { s s s s s s s s s t 8 h m m n n n n x x n n x x x n n n M x x R R E x x x x x x x 8 4 s s s #.#.+.+.$.#.#.s s s s s +.#.",
"; #.#.s #.s s s s s s s s t 8 g n m n n x x m x x x x x x x x n R M M R M x R x M R R R x 8 4 a s s +.#.$.+.$.+.[ { { [ s s s [ ",
"> s #.[ s s s s s a s a p t 8 g m n x m x x x n n x x x n n n m x R R x x x R R x R x x x 8 g a s s +.#.+.#.{ [ { { f s s s s s ",
"5 +.#.s s s s s s s s s a r 3 g m m x x x m x x m n x x x n n m R x R x R R R x R R R R R 3 9 a s s s [ #.#.[ [ [ { #.s s s s [ ",
", s [ s [ [ +.{ f f f s s , 3 g B x x x n R x x n n x x x n m m n n n R n m B n R R R x x 8 7 a s s s [ #.#.+.+.+.+.#.s s s [ [ ",
"5 +.[ #.[ s s #.s s s s s p 3 g B x x x x x x x n n x x x n m m n n n n B n n M x x M B x h 7 a s s s #.#.s +.#.+.+.#.s s [ [ { ",
", #.#.s #.s s #.s f a f s p r x x x n x x x x x M n n B n m m m n n n R n R M M R x R R x 9 7 a s s s +.+.*.#.+.s s s [ s s #.[ ",
", s s #.#.{ [ [ f f a a s , 4 x x M x m R x x R M x 0 h h h h x x l x h h h n h x x h x x 8 2 p s s s +.+.#.#.+.+.+.+.s s s { [ ",
"* > > > 5 q t e e e q = = @ + % % % % 6 8 g g g 9 % $ % $ + + + $ % % % # @ $ % $ $ @ % 6 6 6 7 t w t t u e w e e e t > > > > > ",
"o 8 8 7 6 r y z u y 7 # 6 0 0 8 8 8 8 8 3 0 j j y u y y 0 7 7 0 h y j c F v v F M V c l y b b y l z u z b V b b b b y 8 6 6 1 3 ",
"2 z u b d d a a a a e e e u d a ..b z u a a a a a a p i w 7 9 d =.%.%.-.-.%.=.=.=.=.>.#.f f =.2.%.%.=.=.=.2.2.=.=.=.=.O.>.G l V ",
"= p p p a a a a p i w i e e i p p p p p e p p e p a e i w 7 6 f %.=.f f %.=.%.=.%.=.%.f f f f f #.%.=.%.2.%.%.=.=.=.f %.=.u 7 e ",
"* p p p e p p p p p i i p p p a p p p p p p p p p p p a p 7 7 f f %.f 2.2.=.2.2.=.=.f f f f f =.%.%.=.=.=.=.%.%.#.=.%.%.%.b 7 e ",
"* w p p p i p d e p p i p a p p p w i p a p p p p p i i e 7 7 d f %.=.2.2.2.3.3.=.=.=.f f f f f =.2.f =.%.f =.%.+.=.%.%.%.| y p ",
"* p p p p p p p p a p p p p p p i i w i a p p p p p p i w 6 8 | =.f 2.3.=.2.2.=.=.=.=.f f f f f f 2.=.f %.=.%.=.=.%.%.f =.u q a ",
"& p p p i i p i p p p p a p a p p p i p p a p a a p i i w 7 8 f f =.2.2.f %.=.=.f =.=.%.=.f =.=.f 2.=.=.f %.=.%.%.%.f %.%.| y p ",
"& a a p i p i w a a p i a f p p p p a a i p p a a i i i i 6 7 f =.f %.%.2.2.2.%.%.=.%.%.=.f f =.=.=.=.f f %.=.=.=.f f %.=.d 7 w ",
"& p a a i i i i p p i i i a p i i p p p p a a p a i i i w > 6 f f %.*.=.=.f 2.%.%.%.=.=.=.f =.f f 2.f =.=.%.=.f f =.=.%.%.y 7 e ",
"& p p i i w i i p i p i a i p i p i a a a i p e w w w w > # # q a d d a d d f d d d d f d d d d p d f d d d d a d d d a w : : w ",
"O q w q , q , q q q q q = q q q q q q q w q q ; @ @ X O @ 6 6 # o # # : : 1 : : : - - @ O # 7 7 : - - @ # : # # # # # # # 6 6 7 ",
"% y 0 0 0 0 0 y 0 y y 8 $ 3 j j x c l c l l x c M x c c x ^ 4.x v F Q n U W W M W ^ A x 8 g j l M l h n v n C n v l n h n F n 0 ",
"1 y l v y l l y r x j h 8 l W 4.4.4.4.4.5.4.4.4.4.4.4.4.5.4.4.4.<.4.5.5.<.5.5.5.5.5.4.c g g l l j j 0 y b y v y v v l l y v v v ",
"1 l l y l y l y r l j 9 8 x 4.4.4.4.4.4.5.5.4.4.5.4.4.4.4.4.4.4.4.5.4.4.5.5.7.5.5.4.;.c 1 9 j l y y y y y 7 y b 0 y y 0 y l y l ",
": y y y z l y y y l j 9 3 l 4.4.4.;.4.4.5.4.4.4.4.4.-.4.5.5.4.4.4.4.4.5.5.5.6.5.5.4.4.l % 8 l l v b y y y r y y y y y y y l y y ",
"< j j l y y l y y l y 8 3 j 4.4.4.4.4.4.4.4.4.4.A c 4.4.4.6.4.4.4.4.5.4.4.4.8.4.5.4.4.c 3 8 l y y y y y y y y l l y 9 y y y y y ",
"1 y y y l y l l y y y 9 3 j 4.W 4.;.4.4.4.4.4.4.5.4.4.4.5.4.5.4.4.4.4.4.4.5.5.5.5.5.4.c 6 9 y y y u v b y v v y y y y 0 y y y l ",
"@ y y y y l l y y y y 8 3 j 4.c :.4.4.4.4.4.4.4./ ] 4.4.4.4.4.4.4.4.4.4.4.4.5.8.5.5.4.l 6 8 r y 0 y y v v l y l y 0 y y l y l y ",
": y y y y y l l y y y j 3 x 4.P H 4.4.4.H 4.4.4.4.4.4.4.4.4.5.4.} 4.-.4.5.5.4.4.5.6.4.V 8 9 j l y y y y y y l y y y l y l l y y ",
"@ y y r y y l y l l j g 3 c 4.;.H 4.4.4.4.4.4.4.4.4.4.4.4.4.4.4.H 4.^ ^ 4.4.4.5.5.5.5.c 3 9 j j y l l V l l c j y l j j n y l y ",
"* r 9 9 9 y y y j j 3 1 1 9 P W H H H E ;.H ;.H c W ;.W ;.c W c k H H } H 4.4.4.4.4.4.j 3 @ @ $ 1 % < < < < < < @ # $ 1 y l y 9 ",
". 8 8 8 8 9 9 9 g 8 g 8 h 8 g 9 4 g g h g h j h h h x h j h j 3 < 4 4 g g g g j j j r l x g 3 4 8 8 8 8 8 8 3 3 1 6 3 1 8 9 6 1 ",
"% 5.5.9.5.9._ ( 7.7.) 5.) ) ) ) 4.5.4./ 4.7.7.4.7.) ) 7.7.7.9.h 3 g r j j j j j j x j c c x j l n V l l c c l j l l x j l r r h ",
"1 9.9.9.9.0.9.9.7.7.7.7.7.7.0.7.7.7.9.7.7.0.7.0.7.9.7.7.0.0.7.g 3 r 4 j r r r j j g j j j g 4 k r r j r j j j r r 4 4 j l r r 9 ",
"1 9.5.9.9.9._ 9.7.7.7.7.7.0.7.7.9.7.0.0.7.0.0.7.0.9.0.0.0.0.7.g 4 4 r r r r r r 9 j j j j r 4 j y r j j 4 j j j j r j j r r r 9 ",
"1 4.9.9.0.9.9.9.7.7.7.7.7.7.7.7.7.7.0.7.7.0.0.0.0.0.9.0.9.7.) g 3 4 j r r r r j r r j j j r 4 j r r r r j j j j r 4 r j j r r 4 ",
"1 9.9.9.0.9.9.9.7.7.7.7.7.0.0.7.7.9.7.5.7.7.0.7.9.7.7.0.0.7./ g 3 4 r j r 4 j j r j j j j 4 r r r j r j j j j j j j j 4 j j j 9 ",
"% 9.9.9.9.9.9.9.9.9.9.( 9.9.9.9.7.7.7.7.5.7.7.7.0.7.9.9.7.7.7.g 3 j r j j j j j j 9 j j r r j j j 9 j j j r j r j r j 5 j j r r ",
"# _ 5.9.5.9.9._ 9._ 9.5.9.9.5.9.7.7.7.7.7.7.5.7.7.0.9.7.7.0.) h 3 4 r r r j j l j j j j j j j j j j r j j j r j j r j 4 j j j r ",
"@ 9.9.9.9.9.9.9.5._ 9.9._ 9._ 9.7.7.7.5.7.7.7.7.9.9.7.5.7.7.5.g 3 4 4 r j j j j j j k l j j j j j j r j j j j 9 r j j j r j r 4 ",
"@ _ 9._ 9.9.9.5._ 9.9._ 9.5.9.9.7.7.7.5.7.7.7.7.7.9.0.9.0.7./ g 3 r j j j j j j j r r 4 9 r 9 9 4 4 4 4 9 2 4 9 4 j j 4 r 4 4 4 ",
". g F M n n C B n v n M n l h n h g g g g g j c E A / E E E h g 3 3 4 4 9 4 9 4 $ $ $ @ @ @ @ $ @ $ @ + $ @ @ + @ 1 4 2 4 4 < @ ",
"$ g l v l j v v l c v v n 8 6 9 g 3 3 g 3 3 4 k j x j x j x j c c l g j l l l j c c c c E x l R W A W Y Y A M l c x M c j c j l ",
"9 1.1.6.1.1.1.1.1.1.6.6.1.F 9 z ] ] } } } } ] ] ] ] } } ] ] ] ] } ;.} } } } } } } :.} 4.:.;.x 6.8.8.8.8.6.6.6.6.1.8.6.6.6.6.6.6.",
"8 ,.1.1.1.8.1.1.1.1.1.6.6.z 1 t k k c ] ] ] ] ] ] ] ] ] ] ] ] ] } } } } } } } } :.>.} } } z c q.8.8.q.8.8.6.6.6.8.6.6.6.6.1.1.6.",
"1 1.1.6.1.8.6.1.1.1.6.6.1.v : r k ] ] ] ] k k ] ] ] ] ] ] ] ] } } } :.} ] } ] } :.:.} :.} c z 6.q.8.8.8.8.6.6.6.6.8.6.6.6.6.6.1.",
"2 1.6.6.6.6.6.1.1.6.6.6.6.z 1 r ] } ] ] ] ] ] ] ] ] ] ] ] ] ] ] } } :.} ] ] ] ] } } } } :.z l 8.q.8.1.8.8.8.8.6.1.6.6.6.6.6.1.6.",
"7 1.1.6.1.6.1.1.6.6.6.6.6.z 1 y } ] ] ] ] ] ] ] ] ] ] ] ] ] ] ] } } } :.] ] } ] ] } } :.] ] l 8.8.8.6.8.8.1.6.6.1.1.6.6.6.6.6.1.",
"2 1.1.6.6.1.6.8.6.6.6.6.6.z 1 r } } k k k k s ] ] k ] ] ] ] ] } :.} ] } ] } } } } } } } :.c l 6.8.8.8.8.8.1.1.1.1.1.1.6.6.6.6.1.",
"2 1.1.6.1.1.6.1.1.6.6.6.1.v 1 r ] ] ] k k k ] ] ] k ] } ] ] ] ] :.:.] ] ] } ] } } ] ] } ' z u 6.8.8.8.6.6.6.6.1.1.1.6.6.6.6.6.1.",
"2 1.1.8.8.1.6.1.1.1.1.6.6.z 1 r ] k ] ] ] ] ] ] ] ] ] ] ] ] :.} } :.] ] ] } } } ] ] } ] X.b v 1.8.8.6.6.6.8.8.6.6.6.6.1.6.6.6.1.",
": -.-.<.<.-.G -.G b -.-.F 7 < 7 ] ] k 5 k k 5 k k k k k k ] k k ] k ] ] ] ] ] ] ] ] ] ] ` j 6 b 6.1.<.<.O.<.<.<.<.&.<.Y >.b X.b ",
"  O o o O O O O o O . O O O $ : 5 5 & . . . . . . . . . . . . @ < X - 2 - 2 4 4 2 1 2 4 2 1 6 6 7 9 8 7 6 O O @ O O O O . . . . "
};
