/* XPM */
static char *a23adbfc11114223db9538ec834cd910u3kNcwR9brT6xqDq[] = {
/* columns rows colors chars-per-pixel */
"64 64 111 2 ",
"   c #979BAD",
".  c #999CAD",
"X  c #9EA1B3",
"o  c #ACAEBD",
"O  c #B2B4C2",
"+  c #B7BBC6",
"@  c #B9BBC7",
"#  c #BBBDC9",
"$  c #BDC3CC",
"%  c #C2C2C6",
"&  c #C1C3CD",
"*  c #CBC6CC",
"=  c #C5C9CE",
"-  c #CBCACD",
";  c #D1CECC",
":  c #CDD0CF",
">  c #C6C6D1",
",  c #CAC7D3",
"<  c #C6CAD2",
"1  c #CBCCD4",
"2  c #CECED9",
"3  c #D1CDD4",
"4  c #D0CED8",
"5  c #CCD1D6",
"6  c #CED3D9",
"7  c #D4D2D5",
"8  c #DAD5D5",
"9  c #DBD9D6",
"0  c #D4D4DB",
"q  c #DAD6DB",
"w  c #D5D9DE",
"e  c #DCDBDE",
"r  c #E1DCDE",
"t  c #DFE0DE",
"y  c #E4E0DE",
"u  c #D7D7E0",
"i  c #D9D7E1",
"p  c #D7DCE1",
"a  c #DDDDE2",
"s  c #E2DEE2",
"d  c #DEE1E4",
"f  c #DEE4E9",
"g  c #E3E1E5",
"h  c #E9E3E6",
"j  c #E2E4E9",
"k  c #E3E6E9",
"l  c #E2E5EA",
"z  c #E0E6EB",
"x  c #E4E4E8",
"c  c #E5E4E8",
"v  c #E5E5E9",
"b  c #E7E4E8",
"n  c #E5E6EB",
"m  c #E6E6EB",
"M  c #E5E7EC",
"N  c #E7E7EC",
"B  c #E8E5E9",
"V  c #EBE5E8",
"C  c #E8E7EA",
"Z  c #E8E7EB",
"A  c #EBE7EB",
"S  c #ECE5E9",
"D  c #E5E8EB",
"F  c #E1E8ED",
"G  c #E3E8EC",
"H  c #E1E9EE",
"J  c #E3EAEE",
"K  c #E6E8ED",
"L  c #E7E8ED",
"P  c #E6EAEE",
"I  c #E6EAEF",
"U  c #E7EAEF",
"Y  c #E7EBEF",
"T  c #E9E8EB",
"R  c #EFE8EB",
"E  c #E9E9EE",
"W  c #E8EAEF",
"Q  c #E9EBEF",
"!  c #EDE8EC",
"~  c #EEE8EC",
"^  c #EEE9ED",
"/  c #EDEBEF",
"(  c #EEEBEF",
")  c #F0E7EA",
"_  c #F1EAED",
"`  c #F1EBEF",
"'  c #F2ECEF",
"]  c #E5EBF0",
"[  c #E6EBF0",
"{  c #E6ECF1",
"}  c #EAEBF0",
"|  c #EBEBF0",
" . c #ECEBF0",
".. c #E9ECF0",
"X. c #EBECF1",
"o. c #EDECF0",
"O. c #EEEDF1",
"+. c #EFEEF3",
"@. c #F0ECF0",
"#. c #F3EDF1",
"$. c #F0EDF2",
"%. c #F1EFF3",
"&. c #F4EFF4",
"*. c #EEF0F5",
"=. c #F3F0F4",
"-. c #F5F0F5",
";. c #F5F1F5",
":. c #F7F3F7",
">. c #F8F2F7",
",. c #F4F3F9",
"<. c #FAF5F9",
/* pixels */
"p f f f f f f j j H p f j j Z g g s e e s a g g g g a a a g b 1 . O 9 g b | ( Z R ( e 9 p s a e a e e e e d f f H D D h f d t 7 ",
"f ] H H I I Y { Y W a j W ..o.W ~ g g g s l W W W M M x j b | d 2 p j b ] @.#.#.-.:.g d g j x j x x d g b j I I I x G H j j f 9 ",
"f H H ] I D I I I I d f W o.o.W ~ s r e 9 g I I ] j h j g g ] g w p g f b ( o.@.-.-.d d a d g b x g g g j j G G h j h j j d g 9 ",
"f I I I I D D b b D p j W o.( ) h h r 3 0 d x x h j g g d g b a 5 5 0 w d j | o.o.-.t e p g e g d g f g j g h h j j f g g d t 7 ",
"H W W W I b b b g b p M W ( @.( V h s 3 3 d H b j d a a a g j w $ $ $ 5 w d d f ( -.e e a e e g d g g j b d g g g g g e e e 9 7 ",
"I ..` W Z b g g g g a b ( ( @.` ' S h r 7 d j g d a w e d e g 9 $ 5 $ 5 6 d d f W =.g e e r e e d g b j b y g r e e e 8 0 e t 7 ",
"Z ( W Z b g r r e q s T ( ( ' #.' ) A h g s g d a w 0 e e e d w $ 6 5 6 6 t d f I o.s e r g r g g g g h G r e 0 7 7 0 e r e y 8 ",
"I ( ( ( A g r 0 7 e g R ` ` ' #.' ' ) A Z s g s a 0 e e e e g w 5 6 6 6 d d f f I ( s a t r g r g g h T ( g 9 2 q e r e y r y 8 ",
"E o.@.) ) s s 3 3 s s ` ` ` ' #.#.#.' ) V r r e e e e e s a s a 6 w w d a z z M E $.s a g s h g E s Z | ` s s , 7 e r s s r h r ",
"Z @.@._ ) S h 8 3 e s ) ) ` ' ' ' ' ' ) h r e 0 e a r r a s s i 5 6 d f s E E E E O.s s g x g h A ~ o.` #.s s s 7 e r s s h h 8 ",
"~ o.#.#.) ) S s q q s A A ` ) ) _ _ ) ) ) 8 r e e r s s s s s s 1 0 t f h M E E | O.h h h h A @.` ` @.@.` s s s q 3 e r h y h 8 ",
"~ @._ #._ _ ) ) s q 8 s h ) ) ) ` ) ) ) ) r r r r s s s s s S s w 0 d f M ~ o.o.| $.h h A ) ` @.@.@.@.A s s ) ) g 3 q s y h h r ",
"~ @.@.@.#.#.` ) s q 3 s h S S ) ) ) V ) ) r r r s s S s s s _ s a a s s M o.` o.| o.S ` ` ` #.-.&.$.$.s s h ` s r , 8 s h h _ r ",
"~ @.#.#.#.#._ ) s r 8 s ) A V S h ) ) V ) r y r s s V S S S _ S a g s s Z @.` @.+.$.@.#.&.#.>.-.&.-.$.+.` ) ` ) s 7 4 s h h ) r ",
"S @.) ` ' #.` ) ) s r V ) ) S S ) V ) V V r s h h h V V @.) &.S q s a s _ &.&.#.$.$.@.#.>.>.>.>.<.,.-.$.#.) ) ) A r 7 e s r ) r ",
"h ) ) ) _ ) ) ) ) ) s s h V V S V ) ) V V g s h h ) ) ) ' #.-.@.i s s s S #.&.&.$.,.#.<.>.>.>.>.&.-.-.+.' S ) S h s 3 3 4 8 8 ; ",
"h _ ) ) ) ) ) ) V V r s s s r h h ) ) h h r h ) S ) _ #.-.-.<.&.s , 4 q ) #.#.>.&.-.#.&.,.&.@.@.+.@.$.+.o.s _ s ) s 4 & O o > * ",
"h S S S S S S S h V r r s s h h h h h h h r r ) @.@._ -.>.-.>.@.i , 4 S >.>.#.&.&.&.W ` @.( s 2 i s f s m _ _ ) s ) s 8   o 3 r ",
"S ~ S S A h ) h V V s s h h h h r h r r s r V ) @.$.&.&.>.>.>._ 4 q i ` #.#.&.#.#.#.` &.&.` x a l M s j o.s _ s s s S a @ 4 e ; ",
"h S S S ) ) ) S h Z r s h r r r r r r h V r s r S @.$.$.#.#.-.s i s s ` #.#.@.&.&.' i , > i i i i i i i &.S ) ) ) s s s & & # % ",
"r g h h h _ S V h h r s s s s s e s s a s 7 3 7 2 2 s ~ $.$.| M s @.@.$.$.$.$.@.` ~ 2 2 i A ` o.$.$.o.$.&.s s s g g g r 4 @ % = ",
"g r r g s r q 8 g s g h x x s a s x A Z s a i q 2 > i E &.&.@.s s h s s f a M E @.Z s s A W ( ( ~ $.~ | @.~ E s s s r a e 2 1 - ",
"r e e e e e 8 , e s M ( | | I a 2 i M @.W Z o.| | M M i i | | 2 u i i i p w p z E h s a a a d g b s s x s i s a a e e a 0 7 6 % ",
"h r e e e e r 3 e s x W | Z o.b u 1 4 x Z Z Z W | | E i 2 i | f u f a a a p a a s 4 q i a a g j s l b M s i a a d g p e 6 w s * ",
"g g e e e 9 e d g g b I W j i a p a u a M x E E E M M m f i H f f l l s d p j s a s a s s a a g b g x x s w 2 w e d e w & @ 2 - ",
"d e e e e e e g g a b D Z i @ 1 a a a j M x h E M 4 & a ] a u i x M M M j j o.$.b i s s g g g g g x x g a > > 1 0 w w 0 < O @ - ",
"g t d e 9 p a g g g j b j 4 + a I s a a l M Z M s , 2 +.*.| a i s b ~ E M E $.-.@.Z g b g g g g j j g x q > 7 1 = < 6 w p p s 8 ",
"g g d e a j b b g d b b b 7 > j | f g f h Z b x l i +.,.,.+.| M E ~ | M b @.&.&.-.o.R h x x g g g g g g i 0 a w 1 @ $ 6 p g ] e ",
"g d a g b b b j b d g g g g b I M M s W E b x x | +.+.+.*.*.+.| @.W E j I @.$.-.-.-.' T ( b g a g g g g a a s i 6 < $ $ w d x 9 ",
"h g g W ( W I b b b j b g b j I Z M M W ] s l | +.+.+.+.$.$.o.M #.` l f Z o.-.@.o.-.' ( Z g a s d j d s g e a w 5 5 < $ 5 p I 9 ",
"b I W ..o.W ( A I Z g g d g g b s j M | E s M *.+.+.+.+.+.| l ~ ) M d j Z @.o.$.( ' ( ) g g s d g g j g g w w 6 5 5 5 < 6 p M 9 ",
"D g q b R Z Z A T ( b a d d e p a s s s E b ] M f l l b b a a M M s g j b A Z ( R ( Z g r g g a a d a a j 0 < 5 5 < 5 5 5 w a d ",
"d e e g T D b b ' o.` Z o.-.( ( ( @.` Z Z ( f w a f H z s m M ~ b s A h ) Z h g h g Z g g e d d p d d f Z j 0 2 2 w w 6 6 w w 6 ",
"g e e d y d g b W ' -.=.-.-.o.=.@.@.@.( s ( a = < 2 i a z U E O.( b r r r r r r r r h g w $ $ 5 6 d f f Z Z s a e e 0 0 5 6 w 7 ",
"e j p e g d g Z ( ` ' =.@.:.=.@.@.@.@.o.A ` W p 6 6 i p z B U O.W ( s e r r r y r r g W d = < 5 w p d f Z i s a w a e e 0 7 6 - ",
"d g b e e g b T ' @.@.=.-.' @.o.@.o.@.o.( Z Z W d 6 a a z U E E ( W ` s r r r r r r g A h s 0 5 6 r d H Z 4 i # 2 e p a w 5 = 5 ",
"a d g D a a b T ( #.-.-.@.@.@.( o.o.| @.o.j j H H d p g M E E ~ A Z T ( r 8 r r r e r h s ) s 8 w d j M Z ~ s O < g a a 0 & < 7 ",
"g g g b T a g T ( @.-.@.o.' -.o.o.W | o.( g d d l I j d s m U ` A W R T h e 8 r e e r h ) s s r e w d g x s 2 o 1 d d p 5 < w 6 ",
"j a g j A ( g g @.-.@.| I I I ( W E E ( W d p d x W I g s s s  .W S A h S S 8 7 q q q S s S s s e w e s s i , > w w 6 1 < 0 e 9 ",
"a w g b W o.o.g ( @.o.j b j D W o.o.| M W d d j b Z W I E s h h h ` S h h y g 7 3 8 e ) ) s s s r e a g s 0 + < 0 5 $ $ 1 5 p 7 ",
"w q j G I ( ( o.W ( Z a p d f j E M | ] E a a j M E o.@. .B s s h ( h h r y g r q q r ` x s s i e q i s s 1 # # < < $ = 5 < 0 7 ",
"2 i g h b W T i a g e 6 6 p d f E | ] | Z e p g x B B o.o.~ l s g Z g s r e r r r 8 e T ( s q q e a s a a 0 3 > 1 < < 1 < 5 1 % ",
"0 a j j j b b w g b i w d d l g s h x h x e g j x s m E B B o.x h T h g g g g g s g g ( E h b s s s s b s a a j g e d d u w 6 5 ",
"g b b T I b b Z D b g b I x b j g g g x x g j x m x l s m x h m I ( W W I b b b b I j h b W Z W W E I M b x I +.*.*.o...] j j a ",
"g g g h A b b b g g a a g j j j g d d g g e d g z s l z z s m s D D b j g g g d s g a j j b E @.( E E s u j +.| | ..| ] | +.,.d ",
"g h Z A A T W b b j p g d g g g g g g d b e e d s m s s z s m m T h g g g s s a 0 e i a a b W W E o.M > , | *.$.=.@.$.*.,.,.,.g ",
"g A A W W Z W _ b g e e a d d g d g d b g e a g s B B s s B B m j b g a e q 0 8 q r p a a j W W E E b 2 + a ,.=.*.=.*.=.=.=.,.b ",
"Z ' ( ( ( ( ( W I b e e e e a g d g g g I r s g s B U B m U B B b h y 9 3 q q e r g s j s M I b E W Z a > p *.=.*.+.*.*.*.=.=.g ",
"' ' o.o.s i i i i i i i s a s a s x m B B s s B m m m B E B E B S s s r , 8 r r r h g Z D Z x x b M Z b b I ..*.o.*.+.+.*.+.*.g ",
"' ` @.b i 2 i u i l i i s s s s s m s h  .s s B ~ ~ `  .~ ~ ~ U ) S h s 3 3 r s g g g I D x x x M M Z x R W =.*.*.o.+.=...*.o.d ",
"$.=.o.Z m l M f m E s s s s s g s S m ~  .s ~ ~ ~ O.o.E O.| O.E ) ) A s r 8 3 r y h g H Z g g x x M b s g Q *.*.*.*.*.$.*.o.*.e ",
"-.:.@.o.@.E E ~ | @.s s g g g h m S E ~ o.B ` ` ` ` O.s i i s m ` ' ) ) s s - s h h d b b g d g l x M l I H *.*.*.*.*.*.*.*.*.d ",
"=.,.&.$.+.o.$.X.o.o.g g g h h E _ S E E $.~ $.&.O.$.s i 2 i i a ` &.' ' h s , 8 r S s g a d d d s s g b j j ] *.{ *.*...*.*.*.y ",
"&.&.&.@.+.$.$.X.o.&.h x h S ) o.$.$.E E E ~ -.-.-.O.m B m z m h _ ' ' ) S r 3 3 s S e g e e e a a a g b b f ] | { { { *.{ *.*.d ",
"b M M M E X.$.O.o.&.h ) @.#.@.@.$.$.E i i ~ >.-.-.$.O. .E B O. .' ) ' ) S h q 8 s g e e w w e d a a g a j f H ] { { ......{ ..d ",
"a a s s x o.$.~ ..-.S ` ` #.&.&.&.$.z i s ~ -.-.-.-.$.$.O.O.$.$.) ' ' ) S h s 3 q e e w w 9 e e a e e g j f H ] { { { { { { ..t ",
"i i i s ( o.+.| o.o.( @.#.>.>.#.-.$.~ M _ $.&.&.&.$.*.$.o.$.o.( ) ) ) ) s V s 3 & 1 7 e e e e r e a r s b d H I { H Y Y D G I e ",
"s M E E +.( ~ $.o.@.` >.<.>.>.&.-.-.$.$.@.z m E E | s M o.o.@.( S ) ) S S V s r > X & e r r e r g r g g b g I I { H T D D x G e ",
",.&.&.&.@.$.( ~ o.@.@.>.>.<.>.-.&.&.$. .&.i 2 i s s s M =.o.` ( V V S ) ) h S s e o * r r r e r g y g g D j W W Y D x T j g h 9 ",
"&.&.&.&.$.$.$.~ ( @.` >.>.&.=.@.$.$. .o.$.i i s f i s o.@.| ( ( V ) ) S h S s s e & 7 s s s g g g g g h ( D W W I j x g g d x 9 ",
"$.&.$.$.@.@.( ~ ~ ` S ` ~ s 2 i i l s m &.s S s M E b $.` ( ` ( h ) ) ) h h r r e 5 7 s y g g h g h h T ' T W ( Z g g s e e a 7 ",
"@.&.#.$.` ) S S s ) ) @.o.s a s s x M o.<.@.&.>.&.&.&.&.` ` ` V r V s V r h V s s a e s h h h h Z ) ' ' =.R ( W h h r 0 8 8 8 : ",
"_ &.$.' ` ) S s S s , > i i i i i i s @.| ~ &.,.&.&.$.$.' ' ) r r h r r r r r r r e 8 r h h S ) ( ` ' ' -.T R R h g r 7 3 9 e 7 ",
"s s h s s s r r r s , 4 i Z s b s h x S s s s ~ s s ~ s h r V r 8 r 8 r 8 8 8 r 8 8 8 r r h h h h h ) Z R g g r r r 8 ; * ; 8 : "
};
