/* XPM */
static char *_d11bb498cc440f4b7790b21668c30bbb8Z3RO21Z359LBTF[] = {
/* columns rows colors chars-per-pixel */
"64 64 200 2 ",
"   c #544435",
".  c #54463A",
"X  c #56483C",
"o  c #5A4A3C",
"O  c #5B573A",
"+  c #615B3B",
"@  c #62603E",
"#  c #4E3C46",
"$  c #4E3D48",
"%  c #513D4A",
"&  c #534344",
"*  c #5B4E42",
"=  c #54434D",
"-  c #5E5045",
";  c #5E514A",
":  c #5A4652",
">  c #614E46",
",  c #655B45",
"<  c #63564A",
"1  c #66594D",
"2  c #695B4E",
"3  c #655455",
"4  c #675951",
"5  c #6A5D53",
"6  c #695658",
"7  c #6D5B5B",
"8  c #646045",
"9  c #6E6155",
"0  c #6F625A",
"q  c #706256",
"w  c #716E55",
"e  c #72655A",
"r  c #76695D",
"t  c #796C5F",
"y  c #727354",
"u  c #736662",
"i  c #756B64",
"p  c #7A6D65",
"a  c #766C6A",
"s  c #7A6E6A",
"d  c #7C7166",
"f  c #7D736B",
"g  c #7F7C6D",
"h  c #7D7273",
"j  c #817367",
"k  c #817F63",
"l  c #82766C",
"z  c #84796E",
"x  c #827674",
"c  c #857A74",
"v  c #887D76",
"b  c #827679",
"n  c #857B7A",
"m  c #897D7A",
"M  c #85856F",
"N  c #86896E",
"B  c #858176",
"V  c #8C8475",
"C  c #8B8B73",
"Z  c #8B827C",
"A  c #90857D",
"S  c #918C7A",
"D  c #8C9173",
"F  c #929276",
"G  c #8A7E80",
"H  c #8C8384",
"J  c #8F8884",
"K  c #8F878B",
"L  c #918684",
"P  c #938984",
"I  c #988E84",
"U  c #918689",
"Y  c #948C8C",
"T  c #998D8E",
"R  c #9A9186",
"E  c #96918A",
"W  c #9D948C",
"Q  c #958C91",
"!  c #998E93",
"~  c #998F98",
"^  c #979191",
"/  c #9A9393",
"(  c #9F9891",
")  c #9C949A",
"_  c #9F989F",
"`  c #A1958E",
"'  c #A1988F",
"]  c #A39B93",
"[  c #A19799",
"{  c #A49A9C",
"}  c #A99E9F",
"|  c #A5A98E",
" . c #A4AA92",
".. c #ACA49E",
"X. c #A59EA3",
"o. c #A89FA3",
"O. c #ACA4A3",
"+. c #AFA9A3",
"@. c #ADA4AC",
"#. c #AEABAB",
"$. c #B1AAA5",
"%. c #B2A7AD",
"&. c #B3AAAD",
"*. c #B9ADAE",
"=. c #B5B1AE",
"-. c #B9B4AD",
";. c #BEB9AE",
":. c #AFA8B3",
">. c #B4ACB2",
",. c #BAAEB4",
"<. c #B3ADB8",
"1. c #B6B2B4",
"2. c #BAB3B4",
"3. c #BEB9B5",
"4. c #B6B2B8",
"5. c #BCB4BA",
"6. c #BCBABC",
"7. c #C2BAB6",
"8. c #C3B6BC",
"9. c #C3BBBD",
"0. c #C9BEBD",
"q. c #BDC2AB",
"w. c #C6C2BE",
"e. c #CAC1BE",
"r. c #CBD5BE",
"t. c #BCB7C1",
"y. c #BEBEC2",
"u. c #C3BCC2",
"i. c #C9BEC2",
"p. c #C8BFC8",
"a. c #C6C2C4",
"s. c #C7C5C7",
"d. c #CBC4C5",
"f. c #CDC5CB",
"g. c #CDC9CC",
"h. c #D3C5C5",
"j. c #D5C9C6",
"k. c #D1C6CA",
"l. c #D5CBCC",
"z. c #D9CECC",
"x. c #CED0CA",
"c. c #D6D1CE",
"v. c #DAD1CE",
"b. c #D4DBCD",
"n. c #D9DFCE",
"m. c #CFC7D3",
"M. c #D5CDD3",
"N. c #DACED2",
"B. c #CFD1D4",
"V. c #D6D2D4",
"C. c #DCD4D4",
"Z. c #DDD9D6",
"A. c #D7D4D9",
"S. c #DDD5DB",
"D. c #D7D9D9",
"F. c #DEDADB",
"G. c #E1D6D5",
"H. c #E2D9D7",
"J. c #E1D6DA",
"K. c #E2DBDD",
"L. c #E9DEDD",
"P. c #DCE5CE",
"I. c #DBE4D3",
"U. c #DEE9D2",
"Y. c #DFE0DC",
"T. c #E4E1DE",
"R. c #ECE2DE",
"E. c #E2EBD9",
"W. c #E6F0DB",
"Q. c #DFD7E1",
"!. c #DFDAE1",
"~. c #E0D7E0",
"^. c #E3DDE2",
"/. c #E8DFE2",
"(. c #E4DEE9",
"). c #DFE0E1",
"_. c #E5E2E3",
"`. c #EAE3E5",
"'. c #E5E8E7",
"]. c #EDE9E5",
"[. c #E6E3EA",
"{. c #EAE5EA",
"}. c #E7EAEA",
"|. c #EEEAE9",
" X c #EDEAEC",
".X c #F3EAE5",
"XX c #F1EDED",
"oX c #F3ECEC",
"OX c #F4F2EE",
"+X c #EAE6F1",
"@X c #EDECF2",
"#X c #F2EDF2",
"$X c #EFF1F3",
"%X c #F5F4F4",
"&X c #F8F6F6",
"*X c #F8F7F6",
"=X c #F9F8F7",
"-X c #F6F3F9",
";X c #F7F8F8",
":X c #FBFBFB",
/* pixels */
". z { ........ ...O.] e O * p ` ......+.+...O.......+...+...V o   z E 7 * < < < 1 < 1 < o o < 1 < 2 1 < ; 2 9 2 ; , 0 B S V e 8 ",
"3 7.R.].|.|.XXXX|.XX%XT.j L h.L./.`.R..X.X.XoXoX%XoXXX|.oXOX XA Z F.%X(.F.^.K.C.J.K.L.Z.j v i.V.c.Z.F.F.F.F.Z.Z.F.Z.F._.]. X_.| ",
"= 1.l.V.v.Z.T.Z.C.Z.R.OXz n i.k.N.l.z.z.N.C.J./.`._._.K.K.T.=Xw.^ V.+X+X@X+X{.J.~./.#X&Xz b p.N.V.^.{.}._.F.).).'._._._._.}.:XE.",
"# >.l.v.Z.Z.Z.Z.C.b.H.OXl x 8.k.N.N.C.H.J.G.H.`.`.{._._.H.K.%Xw.J M.[.[.+X+X{.(.^.(.{.&Xz h 8.l.z.Z.F.!._.F.F._.'.!.Z.!.)._.;XP.",
"# &.V.Z.Z.C.Z.v.b.C.K.OXj h u.k.z.N.J.G.G.v.C.R._.{.`._.Z.K.=X;.G p.{.+X+X+X+X+X+X(. X&Xn h 8.M.l.C.!.F.F.!._.[._.F.Z.F.Y.).;XI.",
"# *.c.C.Z.Z.Z.Z.C.v.T.OXj b i.k.z.z.N.z.v.z.C._.`.`.`.T.K._.%X-.! N.+X+X+X+X{.+X(.(.(.:XL h u.A.S.F.F.F.F.F.!._.!.Y.T.F.Y.T.%XI.",
"# *.c.V.Z.K.Z.Z.Z.Z.L.OXj x 8.N.N.v.z.z.z.z.z.H.`._.^.K.F._.&X-.T m.(.+X+X#X+X+X{.~.(.%XP x u.M.!.).!.!.F.F.!.!.!._.).T.D.F.%XU.",
"# >.l.C.H.K.Z.Z.Z.C./.#Xj x 8.j.z.v.v.z.z.z.z.C.K.Z.C.K.K.`.&X-.U m.(.(.+X(.(./.(.J.^.%XP h 6.M.!.!.).!.!.F.F.F.F.Y._._.D.).;XI.",
"$ 1.C.v.H.v.Z.Z.Z.Z.T.OXl h 0.l.l.N.C.l.j.z.z.C.G.C.v.H.Z.K.&X3.U k.~.~.(.(.(.^.^.S.~.#XL x u.A.F.F._.F.K.A.F.Y.F.F.).F.).).:XW.",
"$ 2.C.Z.Z.H.Z.Z.Z.Z.T.OXj h u.l.l.z.N.G.C.v.V.C.H.C.C.C.v.C.&X-.U k.~.J.S.S.~.J.S.S.`.-XP h u.N.S.).!.F.Z.F.F.T.!.F.F.Y.).Y.:XU.",
"# #.c.c.n.v.b.c.b.C.Z.].f a >.k.l.l.M.C.H.C.C.C.C.z.l.l.l.C.OX..L p.N.N.N.N.S.S.N.J./.#XL h 5.M.A.F.F.F.Z.F.F.F.F.F.D.F.D.D.$XU.",
"& Y ..$.$.$.#.#.=.=.q.A.j i ) @.#.@.&.1.>.>.1.*.&.+.+.$.1.9.C.v b o.:.<.,.<.,.<.8.,.u.N.l h _ #.1.4.6.4.1.5.4.1.6.1.1.4.1.6.D. .",
". e i i d d d d f f h g * * u u p d d d s p p f i i u i p d B < > b H H m K H H G G T T < < n / ^ / ^ E Y Y H B h a s f f f B 8 ",
"4 P W W ' W W ( ( ' ' R < o r A R W R Z c d p t q 2 1 1 1 1 *   5 ] O.+.O.O.O.+.o.%...H X   5 r 0 0 0 0 9 9 2 9 2 , 1 8 9 r 2 O ",
"V x._.R.R.T.H.T.T.E.OX%Xd 9 e.].OXOXOX.XR.R.R.E.'.T.K.H.L.T.h.5 E [.$X$X@X%X$X X#X#X:XoXp 5 d.K.K.K.T.T.K.T.T.T.T.T._._.|.|.V.k ",
"/ a.Z.Z.v.c.j.l.v.C.Z..Xd 2 7.v.Z.T.T.Z.Z.Z.v.K.T.Z.T.T.`.OXOXz L V._.).).).!.D.N.J.@X:Xj e l.|.].T.L._.].]._.].`. X X XOX:X%XF ",
"Y a.Z.C.v.v.c.z.z.c.Z..Xk 2 =.c.C.c.v.v.v.v.v.C.C.v.Z.Z.C.].OXz Z g.)._._._._._.Z.F.].%Xl i u.H.K.G.v.G.H.L.`.`._._._.(./.OXoXC ",
"J w.Z.C.C.v.z.v.z.z.G..Xz 2 =.C.c.c.z.v.C.c.C.Z.G.C.C.C.C.|.%Xz n s.F.F.Y._.).F.Z.Z.`.%Xl p 6.J.H.H.H.K.K.^._.{. X{..X/.^.%XOXN ",
"J a.C.v.v.v.z.v.v.z.C.XXj 2 &.C.v.l.c.z.v.v.c.V.v.v.z.G.v.].%Xl B s.F.Z.F.).).T.F.F._.%Xl i 2.G.K.H.L.L.J./.(..X#XXX X(.L.OX%XM ",
"E w.v.v.z.v.z.v.v.C.H.XXf 5 1.Z.v.v.c.C.C.v.v.C.G.v.v.v.v.].%Xj Z s.C.C.F.F._._._.K.`.&Xp p 7.G.H.^.L.K.L././. X+X#X#X{.L.oX%XM ",
"S 0.z.z.z.z.j.v.v.G.H.OXd 5 2.C.c.z.v.C.C.C.v.C.G.v.v.v.z.R.OXz Z g.F.V.Z.F.`._.K.F.`.&Xf s 0.H.L.L.{./.L./.`.#XXX{. X`./.#X&XC ",
"I 0.G.G.v.j.j.z.z.C.H.OXf 2 =.v.z.z.z.v.Z.V.z.C.v.z.v.v.z.R..Xz g g.F.C.C.K._._.K.Z._.%Xf d u.^._.^..X`./.^.(..X X].`.H.J.oX%XC ",
"I 0.G.z.z.r.j.z.z.C.K.OXl q *.l.z.z.V.G.H.C.v.C.v.z.z.z.G.R..Xz h s.Z.K.F.S.F.^.K.Z._.%Xf f p.^./.`.`././.L.J./.L.J.H.G.C.oXoXz ",
"P 0.z.z.z.z.z.z.c.C.H.%Xl d 2.z.v.v.C.Z.^.K.H.H.G.G.G.G.z.R..Xj d a.Z.!.!.F.C.Z.S.Z.`.%Xf s d.{./.`.`.^.J.K.J.K.L.G.G.G.G..X%Xz ",
"L 0.G.z.z.z.z.z.z.z.G..Xj c 2.z.H.H.Z.K.K.K._._._._.L.C.G.L..Xj h a.F.^.F.F.C.C.C.Z.{.%Xl x d.{.(..X/./.L./.L.J./.L.G.G.v..X%XS ",
"A 0.G.G.z.j.e.z.z.z.G.OXz v 2.C.H.Z.Z.^.K.K.T._._._.T.Z.z.L..Xj h s.S.K.F.F.C.V.M.C._.&Xl l p.`././.L././.L.G.G.J.L.G.G.G..X#XF ",
"P 0.G.z.z.j.h.h.l.z.L.&Xz m 2.C.Z.Z.C.K.K.^.K._.{._._.H.J.`..Xl c s.K.Z.Z.Z.V.z.M.C.`.%Xl c a.(./.(.J.~./.J.N.G.K.^.G.J.L.oX&XF ",
"I 0.z.z.z.h.j.l.l.z.L.OXl m *.z.S.S.C.Z.F.K.F.^._._.(.K.N..X.Xj n s.F.A.S.J.V.N.C.C.K.%Xl c u.K././.J.G.G.G.N.J.J.J.J.J.J.oXoXF ",
"U 0.h.h.h.h.h.z.h.z.J.%Xj v &.l.N.N.z.N.C.C.H.J.^.^.^.K.C.`..Xx m p.Q.Z.A.Z.A.A.M.M.K.#Xz m 8.J.~.J.J.N.G.N.N.J.J.C.J.L.J..X#XV ",
"L 8.h.h.h.l.l.l.h.j.J.XXl c O.8.d.f.h.p.0.i.0.p.k.V.M.M.f.z.L.z n 6.A.A.S.!.Q.Z.C.M.Z. Xz m <.k.J.S.l.l.z.p.l.N.N.k.N.l.j./.oXF ",
"L o.,.*.*.,.2.,.7.,.p./.j u { o.o.o.O.o.o.{ } o.O.#.#.@.@.*.h.p f X.:.4.6.t.t.6.5.<.9.N.p u @.%.,.,.>.>.%.%.>.%.%.%.>.%.,.p.N.V ",
"e H H G m n G G m G T o.1 . s m v x x p p i p l x x x l f s p . ; G H G H K Q Q U G Q [ < X j n G U G T T T ! ! T U L m x c l , ",
"  6 7 6 6 3 6 7 5 4 5 5   . < 9 4 4 4 , < 1 2 8 2 1 2 1 1 - < X . 4 6 6 6 7 7 7 H { W r o . < < 1 3 5 e e q q 9 9 5 5 2 ; 1 1 @ ",
"6 8.N.G.G.G.G.L.F.K._.c.e x d.C.Z.C.Z.Z.Z.Z.H.H.Z.Z.T.Y.Y.T._.R 3 6.M.A.Z.S.F.Q. X;X%XK.d J h.G.J.H.K.T.K.L.L.K.K.F.K.T.T.T.F.D ",
"> 8.N.~.L.L.J./.`.(.#X&Xl n a.C.F.F.F.Y.K.K.Z.Z.Z.T.}.'.'.|.:Xq.: 5.A.Q._._.{.[.}.[. X;Xz H f.J.K.^.R.`./.{.+X X|.{.{.|.]. X:Xr.",
"# 8.J.J.J.G.J././.L.`.&Xl x 2.l.l.c.C.Z.Z.Y.Y.Z.Y.'.}.'.'.'.%Xw.= 4.A.S.!.[.!.Q.!._.}.%Xf n d.S.J.C.H.H.^. X X X|.`._.L.^.].:XP.",
"# ,.N.~.J.J.J.J.K.J.`.%Xf f 6.f.g.c.F.C.b.K.F.F.T.'.|.}.}.).;Xw.= >.M.S.!.[.!.!.!.[.'.%Xf b f.J.Z.K.J.K.{.#X#X@X X].`._.`.}.:XI.",
"# 8.N.N.G.J.J.J.J.^./.%Xl h 9.l.c.C.Z.c.C.F.Z.Y.'.'.'.}.'._.;Xw.= <.M.V.V.!.!.F.!.!.+X;Xl b k.N.[.^.^.{.@X%X%X%X@X{.`.`.`.`.&XI.",
"% ,.N.N.J.J.G.L./.Q..X-Xz x u.V.V.C.Z.V.Z.D.Y.Y.Y.'.'.'.F.Y.OX;.= 5.A.A.A.F.F.F.!.@X@X&Xl m i.N.H.K.^. X#X#X-X#X X{.`.`._.L.%Xb.",
"% ,.N.~.~.~.L.(./.J./.#Xl h 9.l.V.D.F.F.Y.T.F.Y._._.Y.Z.I.I.OX;.= 5.A.F.!.!._.!._.@X-X-Xs b p.N.J.^.`.{.@X#X@X X.X`.H.L._.|.:Xb.",
"% ,.J.~.~././././.J./.%Xz h u.g.C.Y.)._._.F.Y.Y.T._.Y.Z.Y.Z.OX;.: 1.A.Q.!._.F.H.!.}.@X;Xs b k.S.^.^._.{. X X{.`./.H.Z.K.^.].:Xn.",
"% 8.J.~./.~././.K.^.{.%Xj h 9.k.D.)._.T.Y.Z.Z.Y.T.Y.Y.Y.Z.Y.=X-.= 5.S.A.F.F.F.A.F.}.@X;Xf G M.~.K.L.`.{.{.`.`._.L.H.H.L.T._.=XP.",
"% 8.~.J.J.J./.J.G.J.`.%Xl a <.f.V.Z.D.D.c.x.c.c.b.C.D.D.I.Y.$X+.= >.A.A.A.V.V.V.A.D.}.-Xf b f.!.S.K./.`.{.(._.L.L.K.K.H.Z.Z.%XP.",
"% G ,.i.8.8.8.8.8.u.f.K.p a ) O.#.#.=.#.#.O.+.#.#.#.+.#.#.1.x.B & ~ @.<.4.#.#.#.#.<.s.D.i h O.&.&.2.2.6.6.0.a.9.u.6.2.-.-.7.Z.w.",
"& m ) { G { [ [ [ / P v * < i p a a a i p p i i i u i i p d f - . u i a d a d f a f c f . 2 u u i u i i c P J Z f p d a j A A y ",
"> ! +.$.8.,.%.%.$.O...A o o < i Z W ] ( ( ' ] | ] ( ( ] ] ] d   4 / ] ] ] ( ] ]  .( ] Z o . 4 u p i r 2 2 9 9 2 2 2 5 , 2 q , + ",
"A G.#X#X#X#X.X#X@X%X&XoXp u f./.oX%X=X:X:X:X:X:X:X:X:X:X:X:X_.r J Z. X X%X|. X X@X#X:X%Xp f g.'._._.`.^.^.F.F.F.T.^.K.K.L.L.h.w ",
"] V.{./././.~./._.^. X&Xl b u.C.H.H.L.^.`.(._.`.}.].`.{. X:X=Xz Z g.K.F.F.K.K.~._._.|.%Xf E g.!.^.^.[.'.[.^.F._.[._.^.(.{.&X%XC ",
") D.{. X(.L.H.K.(.`.XX&Xj n 5.M.N.N.Z.F.^.(._.`.`._.K._.'.;X;Xf n d.K.K.Z.L.L.`.`.`.XX&Xx ^ s.!.(.[.).!.!.Q.Q.!.!.!.Q.Q.Q.@X%XC ",
") F.{.{.{.L.^.K.^.^.{.-Xf b <.M.M.S.K.S._.`.^._.{._.K.K.[.%X&Xf h d.K.K.K.^.^.^._.`.|.%Xc ^ y.Q.~.!.Q.!.!.!.!.(.+X(.^.~.^.%X%XC ",
") A.[.'.{.(.^.(.L.K. X%Xf h 4.M.N.S.Z.^.`._.`. X@X}.`.}._. X=Xl e d.K.L.(././.^._.^.`.%Xc Y t.(.(.!.!.!.!.!.!.[.+X(.(.!.~.#X&XV ",
") A.{.(././.K.^.L.^. X%Xl h >.N.Z.J.C.K._._.{.@X$X$X@X@X X@X:XS 2 d.L.^.^.K.J.J.K.L.`.&Xl P y.(.!.(.!.(.!.(.[.+X+X[.+X!.~.#X%XN ",
"/ M./.K.K.(.^./.(.{. X&Xc f O.l.C.C.J.J.K.^.}.-X$X$X@X@X}. X=XW 2 d.^.L.L.G.G.L.K.L.].%Xf H u.~.(.!.~.Q.Q.^.[.+X+X@X+X!.J.#X=XC ",
"P g.^./.J.L.H.(./.(.#X&Xl u o.M.N.G.J.J.K.^.{.@X$X@X@X X}.{.&XW < u.K.K.J.J.K./.(.L.].%Xf J t.(.!.~.S.Q.Q.!.(.+X+X+X+X[.~.#X;XC ",
"Z s.{.{.(.J.J.^.K.(. X&Xf u @.l.N.G.C.^._.^.{. X@X@X X'._.{.=XI 1 8.J.^.J.K./././.L.`.&Xz P u.(.Q.(.~.Q.^.~.+X+X+X@X+X+X+X%X-XB ",
"H s.(.^./.J.K.J./.`.XX&Xs u %.k.l.C.J._._._._.(.[.'._.^.F.{.=XS 3 0.K.^.J././.L./.L.`.%Xx Y t.~.(.Q.(.(.~.~.[.+X+X+X+X+X+X;X;Xf ",
"L k.L.L.J./.^.~.K.{.XX%Xj a %.M.N.v.H.L.^._._.^._._.K._.T.{.%Xl 2 u.(.L.K.^./.K.(./..X&Xl U t.Q.Q.!.!.!.~.(.(.+X+X+X+X+X+X-X-Xh ",
"Y k.(.L.J.J.^.~.J.^.{.-Xl h %.M.S.C.H.H.K.^._._.^.K.^.F._. X=Xz e i././.J.J.K.J.L.(.{.%Xl Y t.Q.Q.Q.(.(.(.Q.(.+X+X+X+X+X(.-X%XD ",
"T f.{.(.~.J.J.~.^.^.(.%Xs h >.N.Q.H.H.L.K.`.`.[._.K.F._._.$X%Xz s i.K.(.J.C.N.J.J.J./.&Xx Y u.Q.Q.(.!.(.Q.Q.~.Q.!.+X(.(.(.#X@XD ",
"T f.(.^.J.J.N.N.J.^..X%Xz h %.A.Z.K._._.`.'.`.'.`._.T.K._.OX;Xl x 0.J.J.J.C.G.C.G.G./.&Xz Y y.Q.Q.(.!.Q.Q.S.S.Q.!.(.!.Q.~.+X#XS ",
"! f.~.S.J.N.S.J.J.~.{.%Xf a %.M.F.^.T.'.}. X}.}.}._._._.{.&X=Xc v 8.N.J.J.N.N.N.J.N.L.%Xx K t.Q.Q.(.(.Q.~.~.S.N.M.M.S.Q.S.+X#XV ",
"Y u.N.N.S.N.S.~.N.~.(.%Xf u @.u.g.l.l.A.!.D.A.!.A.V.M.A.A.}.%Xz v 7.N.N.J.J.J.N.N.N.J.#Xl K <.p.m.m.M.m.M.m.m.f.m.p.p.m.k.~. XC ",
"G o.>.%.<.,.<.,.<.5.p.^.f 6 X.<.1.4.6.6.t.y.y.y.q.6.y.y.a.B.~.p p [ %.>.,.,.8.,.8.8.i.J.s a @.<.@.:.:.:.:.%.@.@.@.@.o.o.%.8.p.d ",
"; Q ) ~ ! ~ ~ ~ ~ ~ @.<.2 o x v Z Z H H J J J H K H J H H Y m . > G ! Q Q K ! ! Q [ o.*.1 * b b b b b G b m b h b b x x x n l O "
};
