/* XPM */
static char *result[] = {
/* columns rows colors chars-per-pixel */
"64 64 109 2 ",
"   c #C4599C",
".  c #C56492",
"X  c #C96695",
"o  c #C76598",
"O  c #C9679A",
"+  c #CE699C",
"@  c #C55CA5",
"#  c #CA5DA4",
"$  c #C45EAD",
"%  c #C85EA8",
"&  c #C462A4",
"*  c #CC66A4",
"=  c #CE69A4",
"-  c #C461AC",
";  c #CA65AC",
":  c #CE69AC",
">  c #D26CA3",
",  c #D166AC",
"<  c #D46DAC",
"1  c #D576A7",
"2  c #D87BA7",
"3  c #D671AD",
"4  c #D871AE",
"5  c #D67AAE",
"6  c #D97EA9",
"7  c #C663B3",
"8  c #C964B3",
"9  c #CD6AB3",
"0  c #CA67B8",
"q  c #CB6BB9",
"w  c #D36DB4",
"e  c #D36FB8",
"r  c #CE70B6",
"t  c #CE72BC",
"y  c #D472B3",
"u  c #DA74B4",
"i  c #D57BB3",
"p  c #DD79B7",
"a  c #D374BB",
"s  c #DB76B8",
"d  c #D57ABD",
"f  c #DD7BBA",
"g  c #E07EBA",
"h  c #D37DC1",
"j  c #DB84AB",
"k  c #DE8BAD",
"l  c #DF90AE",
"z  c #D780B6",
"x  c #D985B5",
"c  c #DC8BB3",
"v  c #D682BC",
"b  c #DD82BE",
"n  c #DB8BBA",
"m  c #DF91B3",
"M  c #DF93BC",
"N  c #E092AF",
"B  c #E184BD",
"V  c #E389BF",
"C  c #E195B2",
"Z  c #E39BB3",
"A  c #E096BB",
"S  c #E39CBC",
"D  c #E6A2B6",
"F  c #E8A9B7",
"G  c #E5A3BC",
"H  c #E8A7BC",
"J  c #E7A9BE",
"K  c #E8ABBC",
"L  c #D683C1",
"P  c #DC85C1",
"I  c #DB8CC3",
"U  c #DE93C4",
"Y  c #DF98C3",
"T  c #DD95C8",
"R  c #DF9BCA",
"E  c #E087C0",
"W  c #E48DC1",
"Q  c #E493C3",
"!  c #E896C3",
"~  c #E49BC5",
"^  c #E99CC6",
"/  c #E49DC9",
"(  c #E99FC8",
")  c #E4A4C4",
"_  c #EAA2C6",
"`  c #E7AAC4",
"'  c #E9ADC3",
"]  c #E4A3CC",
"[  c #EBA4C9",
"{  c #E6AACD",
"}  c #ECACCC",
"|  c #F0AFCD",
" . c #EAB0C6",
".. c #ECB2CD",
"X. c #EEBACE",
"o. c #F0B3CE",
"O. c #E3A7D0",
"+. c #E5ABD1",
"@. c #E9AED0",
"#. c #E7B1D3",
"$. c #EBB4D2",
"%. c #ECBAD5",
"&. c #F1B6D0",
"*. c #F2BCD3",
"=. c #EFC0D7",
"-. c #EFC0D8",
";. c #F4C2D5",
":. c #F4C7D8",
">. c #F5C9D8",
/* pixels */
"*.;.;.;.;.;.*.*.*.*.;.*.@.R / R ^ ^ B s y , # @ % % < > > > > > > > > = + * - $ % # , u e g ( / / R R @.;.;.;.;.*.;.;.;.*.;.%.%.",
"%.*.;.;.;.;.;.;.*.;.;.;.@.] ] ] | ! g s s s w 8 $ 0 < > > > > 4 < > = = * : q 7 8 4 u s g g ! [ [ O./ @.;.;.;.;.;.;.;.;.*.*.*.%.",
"%.*.*.;.;.;.:.*.;.*.;.;.@.] } } ^ V g g s u w 9 a q y < > > < u g , * = : y a a < u u g s g g ^ [ @.O.+.:.;.;.;.:.;.;.*.%.*.*.$.",
"#.*.*.*.*.*.;.;.;.*.:.;.+.] | } ! V g g g s u s f a a 4 < < p f g w , , < d t b g u u g g g W ! [ | @.+.;.:.;.;.;.;.*.*.*.%.%.#.",
"+.$.*.*.;.*.*.*.*.-.;.-.@.| | ^ V B B g B p u V E d t q < u g V B P w : a t h W V g g g g B B E [ | | $.*.:.:.;.;.*.*.*.*.%.$.@.",
"#.#.#.*.;.*.*.%.%.%.%.%.$.[ ^ Q B g B g B g B V W h h h y f E W E E f w t a f W W V g g B g g B W ^ [ $.-.%.%.*.%.*.%.*.%.%.#.#.",
"%.$.#.$.$.$.@.' J ' $.$.@._ ! W B B g g g B W Q W s q t a s s f f f a a t q d W ! ! B g g g B B W ! [ @.%.#.#.` ' ` #.#.$.$.$.$.",
"&.*.*.&.#.#.` K K #.%.%.#.| [ ^ W V g g V ! Q Q W f q a f f s s s u f f h q f Q ! ! ! W g g V W ^ [ | $.%.%.$.' K H { @.%.%.*.&.",
"&.&.&.&.$.{ J K K $.#.%.#.{ ..} ! V g g ! [ ^ Q Q I h g g g g g g u g g h d P ! ! ( [ ^ g g B ! } .. .+.%.$.#. .K F ) } *.*.o.X.",
"| o.o.| | ` S K ' $.#.%.+.O.} } ] ! B V [ [ ( [ ] W E V B g g g g g g g E W Q ] [ ( [ ( W V ! [ } ..{ +.#.$.%. .' S _ | o.&.o.| ",
"| | | | | { ~ ` ` #.%.%.+./ { [ ^ ^ ! } | [ [ } [ ] ^ W V V V g g E E E W ^ ] [ [ [ [ | [ ^ ^ [ [ } O.{ #.%.#.` ' G } o.| | o.| ",
"| | | | } } ) ) `  .#.#.+.{ { ] ~ ^ [ $.o.| | [ O.} ^ _ ! ! V g g W Q ! ( ( [ @.| | | &.| { ^ ) { +.+.+.#.#...' ) ) } o.| | } | ",
"^ [ | } | [ ( ` ` ` ` { ] O.{ Y Y Q Q } %.$.%.#.@.[ [ [ [ [ _ V W ( ( [ [ [ ] $.$.$.#.$.] ^ Q M ~ { { ) { { ` ` _ _ | o.| } [ _ ",
"^ ^ _ _ @.] ] +.#.} ) ) ) ) G m k k n R +.#.#.#.@.O.| &.*.o.o.o.| &.&.&.| | O.@.$.$.#.+./ T M l m S G ) ) ) {  .} ] | o.[ [ ^ ^ ",
"( ^ ^ ^ ~ ( ] @.} ] { { ) G C k k k Y R O.+.#.#.O.] [ | *.o.o.o.o.o.o.&.[ [ ] O.#.#.#.O.R Y k k k C Z G ) ] ] @...{ [ ^ ^ ^ _ ^ ",
"^ ^ Q E W ! [ } { ] { #.] Z N j k N M / +.+.O.] ] ] } o.*.o.o.| | o.@.&.o.@.] O.O.+.+.+.~ Y m l k m Z G { { ( { } ] ^ W ! ^ ^ ^ ",
"Q W B f b Q ( ] Q / +.@.( c j k N Z N ) { { ] ] ] ] ) ..%.*.o.} | o.&.&...{ ) ] O.] { { ) Z C Z k j k ~ @.] ] Q ] ] W E f B Q Q ",
"P f w w e P ( Q W / / { / n 2 k N N Z D G ) R ] G S M ..*.*.*.o.| o.%.%...) M ~ R ) ) J G Z C l k j k Y O./ ^ Q / ^ P e e u g W ",
"y w 8 - 0 d I Q / / / ( T v c c k k C N C N m Z C Z Z G #.%.*...o.*.%...) Z Z Z M m m Z l C k k j c z U ^ ^ / ^ Q P a e 8 w 4 u ",
"@ 7 8 8 e f E ^ ( / Q I d i x i 5 2 2 j k k m S _ _ { } $.%.%.$.$.$.$.#.#. ._ _ G l k k j j 5 1 5 x 5 a I I / ^ ~ E s e 8 7 8 $ ",
"  8 0 4 g B W ! ! V f s d i x i i 6 6 j l C _ } } o.*.;.;.-.%.%.%.%.=.=.;.*.o.| } _ A c j 2 1 1 5 x z a d i E ! ! V g u u 9 0 $ ",
"  w u u g B W V p 4 y v d i i r y i x 6 m _ } } o.o.;.;.;.-.-.%.%.%.:.;.;.*.o.o.{ [ ^ A 2 j 5 5 r i z r f s 4 p V V V g u s e $ ",
", g g g g g g g 4 u b p 9 y w y z n x 6 ! [ [ o.X.*.;.:.:.:.;.X.X.;.;.:.>.;.&.o.} _ ^ Q j k x i 3 r i : i g u 4 p g g g g s f : ",
"u E g 4 < 4 u 4 4 u p b a t h h n A C N _ [ | | o.*.;.:.;.:.:.*.%.:.>.:.;.;.*.| | | [ ] M l m x v r r t B g p 4 4 u 3 < u f B y ",
"u g u < > 3 3 3 4 u g g s h I T R M C ~ } | o.&.&.&.*.;.>.>.>.:.;.>.>.:.*.*.o.o.o.o.| [ ^ N c Y T I h a p g u 4 4 4 3 > < 4 g w ",
"4 4 3 3 3 < > 4 u u u u h I Q T T n j ~ | o.o.o.o.o.*.*.*.:.>.:.:.>.:.*.*.*.o.o.o.o.o.| ~ k c T T T I f u p u u 3 > < 3 3 < < w ",
"w 4 4 3 4 u 4 p u p B V ( ( / Q I U k _ *.&.*.*.&.o.*.*.*.*.;.*.;.;.*.*.*.&.o.o.o.*.*.*._ k n U I ~ ( ( W g p u u 4 4 4 < < w 9 ",
", < 4 > < p u p u g W [ | O.O.( / ~ c ) *.*.&.&.&.o.&.*.*.*.*.%.%.X.*.*.*.*.o.o.o.*.X.*._ c Y ( ( O.} | [ W f u g u u < : : w , ",
"8 < < < u u u f g W ^ [ @.@.@.@.+.] M ~ X.&.&.o.o.| *.*.*.*.*...} &.*.X.&.&.o.o.o.o.*.*.~ M ( @.@.@.@.[ } ( W B g u u w : < : 8 ",
"$ : u u u s f P P ( @.&.@.&.$.@.@.+.] ) } %.$.&.o.| o.*.*.*.*.{ ) &.*.*.*.&.| o.o.%.o...) ( O.@.$.$.%.&.$.} ( W V f s w w < ; $ ",
"$ 7 a f B E B E ^ o.&.%.%.%.&.$.#.} { { ' ..%.&.o.| o.&.*.*.#.K F ' %.*.*.o.| o...*. . .) ] O.$.$.&.%.%.%.*.&._ W B E b a a 7 $ ",
"$ 0 t d b b b ( $.%.%.%.*.%.%.$.#.@.] {  .`  . .o.| &.%.o.` H F F F `  .o.o.| o...' ` ' ) ] @.$.%.%.%.%.%.*.%.o.] B E b d t 0 $ ",
"7 q h f g E E ! @.%.%.*.%.%.&.$.#.+.{ {  .K  .| %.o...%.{ ) D F D D G ` ..$.} &. .` '  .` ] @.#.$.%.%.%.%.%.%.o.^ E B B h h q 7 ",
"7 0 s g W W W W ^ | $.*.%.&.%.$.$.{ ] ` X.| *.*.&.&.o.&.o.%. .K K ` X...&.&.&.*.&.&... .` ] O.@.$.&.%.&.*.&.| ^ W W W B g s 0 7 ",
"7 e u u g g g E W ^ [ | @.@.#.@.} } ] ` o.*.&.*.*.o.o.o.*.;.%. .K =.;.*.&.o.o.*.*.%.&.*.) ) +.@.@.&.@.@.| [ ^ W E B g u s s e 7 ",
"0 u u u u u u g W W ^ [ ] [ } +.@.{ ~ G *.*.&.&.*.o.*.;.*.*.;.X.X.;.;.;.*.&.o.&.o.&.*.*.) M ] } @.@.] ( [ ^ W W g g u u u u u 0 ",
"w s u u 4 u g g g g W [ { ] ] ( ^ R M ) *.*.o.o.*.*.*.;.*.;.;.*.*.;.*.;.;.;.*.*.o.o.*.;.{ M Y / ( ( / ] [ W g g p p u 4 4 s s w ",
"u s g s u 4 u u g g V W ^ / Q Q I I c ) *.*.&.*.*.*.;.*.;.;.;.*.;.;.;.;.;.;.*.;.*.*.o.*.{ j n I I Q ^ ( ! E g g u p 4 u u e u u ",
"u g g s g 4 u g B g g g b L I I I v j ) *.*.;.;.;.&.*.;.;.;.;.;.;.>.;.;.;.*.*.*.;.*.;.*.` 6 x I T T L h B B g g g 4 u u s s s e ",
"u g g s u < u g g h g P a t L I I n k _ *.*.*.;.;.*.;.*.;.;.:.;.;.;.;.;.;.*.*.>.;.*.*.*.} k x n L h q f B g B B g 4 w s s s s s ",
"4 g B f p u p s g h g g h h t a i n m G %.*.o.*.;.*.;.;.;.;.:.=.X.:.;.;.;.;.;.;.*.o.*.*.' l j i a q q d E B E s s s u u s h g w ",
", g b B g f g B u g g E 0 7 9 r x M m Z ..X.o.*.*.X.;.;.;.>.;.%...:.>.;.;.;.X.*.*.*.*.o.S l m x r : 9 9 B E s s g g g g E f h < ",
"# a B B B B B W g g g h e < y z n n m Z H o.*.*.*.*.;.;.>.;.;.%.%.=.;.;.;.;.*.;.*.*.*.K Z k c c z 5 : w f s s g E E B B B b f q ",
"; a d f B B V W W g e h s d z x n x k l G ' ..*.;.;.;.;.;.;.%.%.%.%.%.;.;.;.;.;.;.o.' D Z k j x x z y a d s E E W E E B B b d q ",
"8 e q e f f f W W I P P d i n c c k k N Z D F ' X...X.X.%.%.*.o.%.%.%.%.%... .X. .H D D C k k j c n r a P P I Q W g g h a t a t ",
"W E h a h f h W Q Q Q / I v M M m N D N Z Z Z Z Z Z D  .%.*.*.&.%.%.%.%...F D M Z Z Z Z Z Z C N m m z n Q Q Q Q W h f f a b P W ",
"[ ! W E h W ^ Q T / / ( ~ z j N Z D F D G ] ) ) ) S J ..*.;.*.*.*.*.;.%.X.` G G _ { ` G D D D Z l j j T / / / Q / Q E P V V ^ [ ",
"[ [ ! W ! ^ ] O.Q ( / ] Y c j k D D D ) { +.+.O.{ ]  .*.;.*.*.&.o.*.*.*.%.` ] { +.+.+.#.) D D Z k j j Y O./ / Q { / ^ ! Q ! [ [ ",
"[ [ [ ^ ( [ ] @.] ! ~ { ] M l k l Z D ] +.+.+.O.] ] ..%.;.*.*.*.*.*.;.*.&.@./ O.+.#.+.O.] ^ Z k k k N S R ] R { } ] [ [ ^ [ [ [ ",
"[ _ [ [ } | } @.@.( ] ] ) Z l k l l S O.O.{ +.O.O.] ..*.;.*.;.*.*.*.*.*.&.%.+.O.+.+.O.O.] ~ N k k l C G ) Y R { @.] | | [ [ _ [ ",
"^ [ [ | o.o.{ } #.{ ) ~ ) M Z l m m Q ~ R O.O.O.] { *.*.;.;.;.*.*.;.;.;.*.*.} O.+.O.] ] R U C l m m Z ~ G ) O...@.} ..o.| [ _ _ ",
"[ [ [ | @.@.) ) _ ` ) { ] ] ] ) M ^ ) _ { { +.{ ] } *.;.;.;.*.o.&.*.*.;.*.*.| ] +.+.@.] ) ~ ^ S S ) ] ] O.) ` ) _ _ ..&.| | [ [ ",
"| [ [ } } @.) ) ` +.#.#.O.R O.] [ [ | | | } [ ] / +.$.&.*.&.o.[ [ &.&.&.%.o.} ] { [ | | | [ [ [ { ] / O.#.#.` ) G ) o.o.| [ | | ",
"| [ [ } $.} ) ) ` #.%.%.O.R ] } | | [ } } [ [ [ ] ] } ( [ } | [ [ } } ( ( } { ] { ( [ [ | [ | | } ] R ] %.%.#.` ) ~ ..o.| ^ _ | ",
"| o.o.&.&.} G ` ` $.%.#.{ ) ....| [ ! Q | [ ( ( ^ T ^ ^ [ | _ ^ ^ ( [ ] ^ / Q ^ [ [ [ | ! ! [ | } } ] { %.%.#...` G [ o.o.&.| | ",
"o.&.*.&.&.@.` F ' $.$.$.+.{ o.| [ ^ V V [ | _ Q E I T ^ [ [ ^ ^ ^ ^ [ ( ( I P W Q _ | [ V V ^ [ } o.} +.#.#.#.#.K K { @.&.&.&.| ",
"*.*.;.%.%.$.' K K #.%.%.#.%.} _ _ ^ W V V [ ^ ^ W P L I ^ ^ ! Q W ! Q ~ I h b W ^ ^ _ V V ! _ [ [ | o.#.%.$.%.' F K  .$.%.%.*.%.",
"$.%.%.%.%.%...' K  .%.%.#.` ( ! ^ ^ V g g V ^ ^ W d t a d f B g B f d d h t f W ! ^ V g B V ! ^ ! ^ [ #.%.$...K ' ' $.%.%.%.%...",
"#.#.%.%.*.;.;.;.=.X.%.%.$.[ ] ! Q V g g B g V V Q f q q & < u u s u , O 0 0 d Q V V g B g g V A ! _ { $.%.%.*.;.;.;.*.*.%.$.$.#.",
"#.$.*.*.*.;.;.;.;.=.=.%.#.} | ^ W V g s g u u V Q v 0 ; X > 4 g e w =   ; 0 f Q V g u g g g V V ^ [ } #.%.%.;.;.;.;.;.*.;.*.%.#.",
"$.%.;.;.*.;.;.;.;.*.*.%.} { } } Q B u 4 s s s b Q h q O X X 3 u u < . . O 9 a Q B p g s u p f Q { } { +.*.;.;.;.:.;.;.*.*.;.%.$.",
"$.*.*.;.;.;.;.;.;.*.*.*.+.] } | { B 4 u s s f s f t = X X X + 4 4 * . . . = t d f f g g y w f ] } } R } ;.*.*.;.;.;.*.*.;.*.*.%.",
"*.*.;.;.;.*.;.;.*.*.&.*.@.] ] @.} Q s s s s s e q r O X X X X > > X . . . o t q e f f f s y W { @.] R #.*.*.*.;.;.;.;.;.*.*.*.%.",
"*.*.;.*.*.*.*.*.*.*.*.*.@.T T / ( _ v y y 9 # % - & . . . X X X . . . . . . & 7 % ; w y w f / ( T R T } *.*.;.*.*.*.*.*.;.*.*.*."
};
