/* XPM */
static char *_fd8c8ff14ff4603fdb0473bc3d9e183UAjQZ6UxHE98uDf2[] = {
/* columns rows colors chars-per-pixel */
"64 64 114 2 ",
"   c #B6A782",
".  c #B9AA85",
"X  c #BEAE8A",
"o  c #B7B18D",
"O  c #BEB38E",
"+  c #BDB892",
"@  c #C1AC89",
"#  c #C2B38E",
"$  c #C4B591",
"%  c #C5BA96",
"&  c #CBBB96",
"*  c #C5BB9B",
"=  c #CCBE99",
"-  c #D0BC96",
";  c #D1BE99",
":  c #C6BDA4",
">  c #CDC19C",
",  c #D3C39D",
"<  c #D9C69F",
"1  c #DBC99F",
"2  c #CEC3A4",
"3  c #CDC4AA",
"4  c #CFC8AB",
"5  c #D4C6A2",
"6  c #D9C5A0",
"7  c #D5CAA3",
"8  c #DBCBA5",
"9  c #D0C7AE",
"0  c #D5CBAB",
"q  c #DCCEAA",
"w  c #D9D1A7",
"e  c #DED1AC",
"r  c #D5CCB2",
"t  c #D9CFB2",
"y  c #D6CEB8",
"u  c #D7D0B2",
"i  c #DCD3B4",
"p  c #D7D0BA",
"a  c #DDD5BA",
"s  c #DFD9BD",
"d  c #E0CFA7",
"f  c #E1CEA8",
"g  c #E3D3AC",
"h  c #E5D9AE",
"j  c #E8D8AF",
"k  c #E4D6B2",
"l  c #E8D7B0",
"z  c #E5DAB3",
"x  c #EADCB5",
"c  c #E1D7B9",
"v  c #E4DBBC",
"b  c #EADEBB",
"n  c #EDE0B6",
"m  c #EDE2BC",
"M  c #F2E4BD",
"N  c #F4E9BF",
"B  c #E5DEC1",
"V  c #E9DFC0",
"C  c #E6E1C2",
"Z  c #EDE4C3",
"A  c #EEE9C6",
"S  c #EFE9C8",
"D  c #F1E5C0",
"F  c #F1E6C0",
"G  c #F2E6C1",
"H  c #F4E6C0",
"J  c #F3EAC1",
"K  c #F6E8C1",
"L  c #F7E9C2",
"P  c #F5EEC1",
"I  c #F0E8C4",
"U  c #F6EBC6",
"Y  c #F6ECC5",
"T  c #F8EAC3",
"R  c #F9EBC4",
"E  c #F8EDC4",
"W  c #F9ECC5",
"Q  c #F9EDC6",
"!  c #FBEEC7",
"~  c #F3ECC9",
"^  c #F2EDC9",
"/  c #F1ECCA",
"(  c #F4EECB",
")  c #FBEFC8",
"_  c #F8EFCA",
"`  c #F9EFCA",
"'  c #FCEFC9",
"]  c #F8F1C5",
"[  c #FAF1C7",
"{  c #F6F2CC",
"}  c #F7F3CD",
"|  c #F8F1C8",
" . c #FAF3C8",
".. c #F8F0CB",
"X. c #F9F1CB",
"o. c #FBF2CA",
"O. c #FCF1C9",
"+. c #FDF4CB",
"@. c #F8F1CC",
"#. c #F9F2CC",
"$. c #FAF3CD",
"%. c #FDF3CC",
"&. c #F9F4CD",
"*. c #FCF6CD",
"=. c #FDF6CF",
"-. c #FDF8CF",
";. c #FEF8CF",
":. c #F7F4D0",
">. c #FBF7D0",
",. c #FCF6D0",
"<. c #FEF7D0",
"1. c #FCF8D1",
"2. c #FEF9D1",
"3. c #FCF8D3",
/* pixels */
"r a r 3 r u r u 3 r r t 2 t c v v v a Z A m m m u e w 4 s n m C u 0 u 0 i z i v c t 9 i c a i i y r r a u u i c c r 2 * * 9 c v ",
"p Z D m D e 5 e > 0 q e 7 l Y O.} ~ v &.-.[ N n i n w > w m | 1.s > , , w x O.} ` ` R ` ` U l M ` Z v #.#.K q k M M l , 8 q M ~ ",
"a #.=.=.%.l 6 , $ = 7 < 7 e M ` -.~ i N W ] x z N P N i > , z -.s > 7 w 7 g Y <.<.` T x g x x ! <.~ B <.,.O.M b T K M , # < b W ",
"p #.<.=.%.W l f g 8 , 8 m M m W +.Z 7 h n z x ] 1.-.-.P e 7 > A s w 7 > O 5 M W ' L d f l x M ` %.~ v <.<.<.%.%.O.O.U x @ 6 b n ",
"9 ` =.=.=.O.' T N W H H O.W W O.N m u N ] N  .-.-.-.-.-.O.J e z r z z 7 > > 8 l b f 6 M R H T ' #.~ B <.,.%.,.%.%.%.' N 8 ; 5 ; ",
"3 ` =.%.=.O.O.O.W ' %.%.O.[ W m i e v [ +.=.+.=.-.-.-.-.-.-.[ m r m T H J K e > ; $ ; T W T ! ' ` ~ B %.<.%.%.%.%.%.%.R Y b e 5 ",
"3 ~ <.=.%.O.( W W ' %.O.%.` W x e z v ] +.+.-.-.-.-.-.2.&.+.-.#.B Y %.` O.] M l k b H W ' ' ' ` W I B :.%.%.%.%.' O.O.` T M e , ",
"3 ~ =.=.O.W H m H ' ` O.%.O.O.J n m v  .-.&.+.-.-.-.-.O.2.=.=.=.v ( %.%.%.O.` D H W ! ' ' ' W W ` T v %.%.%.%.%.%.' ` H m g < , ",
"r ~ <.%.' T M M M W ! ' O.O.O.N m m C 1.1.-.=.+.+.-.=.=.%.<.#.,.C D =.%.%.' ' ! ' ' ' ' ' W ' W W D v #.%.' %.' ' ` M q l f ; 8 ",
"9 ~ <.%.' W M M M M M ! O.` R N m m v ,.1.-.-.+.=.+.=.-.=.&.<.,.B ( %.%.%.O.' ` ' ! ' ' ' W ' T D v v <.%.%.%.%.O.` N x k 5 @ = ",
"r ~ %.%.' K K x f l f l l q l x z Z m &.1.2.=.=.=.=.=.+.+.#.=.<.B Z <.%.#.' ` ' ' ' ' ' ' ' R V l 5 a #.%.%.%.' ' ` ' T M l 6 q ",
"y ~ <.%.W H M m b 8 < , , , & l n A v -.-.&.+.=.-.+.+.=.+.<.%.<.B ~ %.%.%.' %.' ' ! ! ` ' ' R H k t c #.%.%.O.O.' %.' ` M m V U ",
"y ~ %.%.W T T W Y q = e l e & = e m s -.-.O.O.O.+.=.=.+.=.O.=.=.B ( %.%.' %.' ' ' ' ! ' ! ! ! R K D c :.%.' %.O.' ' ' ' ' ! ! ' ",
"r ~ %.%.%.' ` O.` M 8 = % , 8 = g m s -.-.=.=.=.=.+.+.=.=.O.O.=.v ( %.#.' ` O.' ' ' ! ! ! ' W R W ~ B %.%.%.' R ` ' ' ' ! ! ' O.",
"r I <.%.%.%.O.O.` W D x # = k = l Z v -.-.=.O.=.=.=.%.=.` =.<.#.B W %.%.%.' ` ' ' ' ` ! ' W ' ' W ~ v ` ` %.W M W ' ' ' ' ' ' ' ",
"3 ~ %.%.O.=.' ` ' ` R M # # 5 8 N A v =.=.=.=.=.+.%.=.O.<.%.%.,.B ( %.%.' %.' ' ! ' ! ! ! ' ' W ` I c x M ' ` R ` ' ' ' ' ' ' <.",
"9 C ' %.` ` ` ' W W W M ; , x M W Z a &.<.<.=.+.` <.%.%.%.%.' ` p Z #.O.! ` ` R T R W W W ! ! ' ! D 9 f k M O.` ' ' O.' ' ` W ` ",
"p a V V V V b v v b v t 0 k c c v v r B Z Z Z Z D V Z Z Z Z B a r s b V b b c v c c c v b b m V V c * # $ e m A I M Z D Z b b V ",
"a Z S ~ ~ I V i 5 : = * : 8 0 7 i b B S ~ ` ( ( U S Z ~ D Z S Z v Z ~ ( ~ S ( I U Z B D V ~ I I Z c 9 r i m Z I I I I I I V V D ",
"s :.3.3.,.<.' W b k , # , & g b W O.B <.=.=.=.=.%.<.' %.<.' %.<.Z <.3.3.<.<.-.-.<.%.,.,.%.,.%.=.<.S V <.,.<.2.=.<.=.%.<.<.%.O.<.",
"c ,.,.,.,.<.' R H l ; - < f H ! #.#.Z =.=.%.%.%.%.%.%.%.%.%.%.#.S ,.,.1.-.=.=.=.%.,.%.%.=.%.%.=.<.~ Z %.<.<.=.%.! #.#.%.' %.%.<.",
"B ,.,.,.#.' K M k 8 = 5 ; 6 b T ` O.Z #.%.=.%.%.%.%.' %.' ' ' %.A <.1.1.=.=.O.W ' <.%.%.%.%.%.%.%.U I %.%.` %.' K H %.%.%.%.%.%.",
"s ,.,.%.=.H g k f 6 7 k g q m K ' #.Z O.O.O.%.O.' ' ' ' ' %.' #.Z -.2.1.<.=.` T ` %.` %.%.%.%.O.%.U Z ' J x W O.' W ' %.' %.` <.",
"s %.<.<.' K x x 8 @ ; l H H T ! ' #.Z ( O.' %.%.' ` ` R ' ` ' ' Z -.1.-.O.R M U %.%.%.%.%.%.%.%.%.S I W g g M W ' O.%.' %.%.' %.",
"s ,.,.` %.%.R M l 5 8 b W ! ! ' ` ' I ` ` W ' ` b f l M K R W R Z -.-.+.m d d P +.+.=.=.O.O.O.%.<.I m g % $ 6 H ' O.' %.#.' %.%.",
"s :.<.%.%.' ` H M M T ` ' ' ' ' ! ' I ` k l M l , - ; 8 N T W H m ,.=.z & # 7 P =.&.O.O.O.<.%.%.O.Z 7 $ & 7 5 J O.O.%.O.' %.#.%.",
"c #.<.` %.%.' ` ' ' ! ' O.' ! ' ' W V M $ X % % > l ; # k x M b i S w . . # > K <.O.O.=.=.O.=.O.O.Z > 7 M K x x U ' O.O.=.O.' %.",
"B O.' ' %.%.%.%.%.' O.' ` ' ' ' ` ~ b x 8 l 7 5 g i , 6 ; 7 f f 0 J e & . $ e M W +.=.O.O.%.O.%.O.I l M #.W g - d W ` O.' O.' ` ",
"a ( K ` O.%.%.' ` ' %.' ' ` ' ` ' W v H W W R T U 8 ; 8 $ : 5 7 u  . .m 1 > 1 h A O. .+.=.O.=.O.<.I Z O.O.O.K g g M #.O.O.' ` W ",
"c #.' ' %.O.%.' ' %.' ' ' ! ' ' ' U v %.%.' ! ` ` x ; ; & & - : i  .| S m > + , m [ #.#.O.=.O.O.%.U Z =.=.=.=.O.D K O.%.O.` H M ",
"a ~ O.#.%.=.%.' %.' O.' O.O.' ' ' I v ' %.` ' ' O.W m x b x f g v [ J P u o * o w m M W O.=.=.O.+.~ b O.+.O.O.W W ` O.%.~ x 8 8 ",
"r v D K K I H I D I D Z M D D D D B p D I T I I M D D b x m D b u i n v w w w > % 0 z Z I Y ~ U U Z u K W W K M m K Y I e $ . = ",
"p C A ~ ~ I Z x i m Z m m a 4 4 a c a v D D D V Z D I I Z I ( C u v S A C A m p u 4 4 s s v m C v a r s i 0 i i z C v 0 + * i u ",
"s #.2.2.1.&.K x 0 M &.O.} m + 7 Z Z B #.<.` M M D ` %.%.<.O.=.#.C :.3.3.3.3.2.&.#.O.} } } -.&.#.} Z s } &. .&.&.O.1.| P J ~ 2.&.",
"s ,.1.1.1.2.W M M  .=.=.&.P h n b Z B ,.<.` R R ! ' %.%.%.%.%.%.Z 3.3.2.2.3.-. .+.2.2.-.1.2.-.1.1.} m &.1.3.1.1.1.2.-.-.-.1.2.2.",
"v #.-.1.=.-.] M N =.=.=.#.[ h z z m c %.<.<.<.%.%.<.%.%.%.` %.O.Z 3.3.3.3.1.-. .+.-.-.-.-.-.-.-.&.~ s 1.2.2.1.-.1.-.2.-.-.2.,.#.",
"s #.<.=.=.=.] M M O.O.O.O.O.M g g 5 r #.%.%.%.%.' %.' ' H W ` ` S 3.3.1.2.2.2.2.=.-.-.=.=.=.=.=.1.S v ,.1.1.-.-.=.-.-.-.-.-.=.=.",
"a H N ] R M K M M [ O.<.=.O.O.U m z a #.<.%.%.%.%.%.O.` M H ! ! A 3.3.2.2.2.2.2.-.-.-.=.O.=.=.=.1.( C ,.2.1.=.+.+.=.=.<.=.=. .O.",
"t g < 1 < , x m H O.O.=.=.%.O.=.=.~ v <.%.%.%.%.' %.' ' ' W ! Y m 3.2.2.2.-.2.-.-.=.=.+.=.=.O.<.-.} C ,.-.-.-.=.=.=.O.<.<.| #.O.",
"0 < g g g , , g m W #.O.+.#.<.%.O.~ B #.%.<.' #.%.%.' ' ' ' W M i 3.2.2.-.-.-.-.=.=.=.=.=.+.=.%. .( C ,.1.-.=.=.+.=.=.<.#.<.O.2.",
"a 8 = q g q & 7 x J W 2.%.=.=.O.=.~ B #.%.%.%.%.%.' ' ' W W M e u ,.&.] N P -.-.=.-.-. .=.O.=.=.&.S v -.=.=.<.#.+.=.=.=.%.=.O.=.",
"a K z > X q f 8 M H W O.%.O.O.%.,.~ v <.%.%.%.` O.O.' Y b x 7 O 7 2.] e 7 e  .-.O.O.O.<.=.%.O.%.<.} v =.=.=.=.+.=.+.O.=.=.O.=.=.",
"B ` ` g @ q , e W ` ' O.%.%.%.%.O.~ B #.%.O.%.` O.` ! T l & $ > s  .n 7 i > n N J P O.&.=.%.O.=.+.~ C =.=.=.%.=.+.=.=.=.=.O.+.=.",
"s ` O.k X , g N ' O.O.%.%.%.O.O.=.~ v %.%.=.O.O.O.W W N b < 6 m m O.u + 7 > > 1 8 n Y =.%.O.=.O.&.~ v +.=.=.=.<.+.O.O.O.O.=.O.=.",
"v =.O.x g N ` ' ' %.%.%.O.%.%.` %.~ B ` ' %.' ` T K M l l K M P A  .m e z e , 7 7 x T O.O.=.O.%.O.S C #.=.=.O.O.T A W O.=.=.O.=.",
"a %.O.H W O.O.O.%.%.%.' %.O.` ` %.~ c W W W M l g d d g M W ` } C  .-.} O.P n m Y W ( } O.O.O.#.U z v 2.=.=.=.W z x M ( O.O.O.=.",
"s #.' ' %.%.=.O.%.' %.%.%.O.%.%.%.~ c R M f < g x l < < M T ] O.A 1.-.-.-.O.O.O.=.O.O.] M m P K m 0 v -.=.O.=.O.~ J U [ O.#.%.=.",
"a #.` %.%.%.%.O.%.O.%.' %.%.` %.%.~ k x l ; f N O.W T f g T W U C -.-.-.&.2.&.=.O.=.O.K z g m D J m C =.<.O.=.=.O.O.O.U Y O.O.%.",
"p ~ O.O.O.} O.} O.} [ | O.O.O.O.O.S 4 8 e 6 h J ] O.` M x N N M i ( <.#.O.<.O.#.O.` ' m z b b T U Z v #.<.%.%.%.%.%.O.W Y ' %.` ",
"y z v b v m x v v b v z a v x v v i 2 * > > 4 z m J m k 5 5 q 0 : c Z V b v c c v v v v i k v v x a u Z I U K I I I Z H I I I V ",
"a S ~ Z i i v x z x m s r m A v v r y x i m v m Z Z Z m Z c v Z a Z U ~ V i 0 q b V Z S Z S Z I A B B S ~ ~ U I D I I D I S I V ",
"s 1.3.,.N h g 7 8 x z z m 2.2.&.%.Z v 2.1.,.&.<.<.%.%.=.%.%.<.%.Z <.<.=.O.M D ` ' %.%.%.%.%.<.%.=.~ C <.<.2.O.O.%.' W n H %.' ` ",
"s 1.1.2.2.O.M n M P P P -.-.-.-.<.#.Z #.=.=.%.%.%.%.%.%.' %.%.#.S ,.,.} %.%.%.%.%.%.%.' %.' %.%.%.~ C <.<.=.=.=.=.R b q l H W ' ",
"v 1.2.2.2.1.+.+.P W O.+.+.-.-.=.2.#.Z #.%.%.%.%.%.%.%.' %.%.%.%.S ,.<.#.%.%.%.%.%.%.%.%.%.' ' %.O.~ V <.<.%.` K T x , $ % x ` %.",
"s 1.2.2.1.-.&.+.#.W ] +.+.+.+.=.<.#.Z #.%.%.%.O.%.%.%.%.' %.' #.Z #.=.#.%.' %.' %.' ' %.%.%.O.! %.( b <.=.=.W x 8 & O < > k ` %.",
"s ,.2.1.-.-.=.=.[ #.O.+.=.=.+.=.=.#.Z %.%.%.O.' ` W ` ' ' ' ` ` Z %.<.%.%.%.#.%.' %.' ` ' ' O.` ` Y V %.O.%.W b > & g T b g M ` ",
"v -.1.-.=.=.=.=.+.=.=.+.+.=.O.=.<.#.Z Y D D W ! ! ! ! ' O.W W T C #.<.O.O.O.O.%.' ' ' ' ' ' ' ' ! T C =.W N M n l x T ` M , - M ",
"a -.1.-.=.+.=.+.=.+.&.+.&.+.O.=.<.#.x g , 7 x K ! ! T N M g g q z O.O.O.O.W ' ' ! ' ' ' %.' ! ! T M v M M n j n W W W ' W M g l ",
"s #.-.=.=.+.=.=.=.+.+.=.O.+.=.+.,.#.q = f ; ; M N H M f < g x k i #.O.U l f x W W W R ' ' H M x b l q f d < d N W O.O.O.O.#.K N ",
"s 1.-.-.<.O.+.=.+.=.=.O.} =.+.=.<.#.0 8 x , * 7 f l l - 8 M W #.x Z m e ; < ; x T R T b l q f 8 8 - k T W j d j O.! O.O.O.W W Y ",
"s -.-.-.<.O.=.=.<.&.O.O.O.+.=.O.<.#.x m q , q = 8 f 8 , g J W O.i = % = q g X 8 k M b g ; g M N M f i %.=.O.n j W P W K T N M J ",
"s ,.=.=.O.=.=.+.O.O.<.O.&.+.+.=.%.#.C O.g , > # * : , 6 w m Y O.v x > q l 0 > 7 = e f 6 , b R ` ' N c ` O.O.M l x M h > 8 g l N ",
"a &.-.=.=.=.<.#.<.+.=.O.O.=.+.&.%.#.V #.T g f f 8 = 6 b m x K U v U Y W m = q = & , 7 , 7 x U W ` D k U =.U m z 8 e % % q > x } ",
"r J ~ K J A J J P U A P J D J J Y Z i M H N m x b x x M M m N Z 0 b K K b < $ # O # % > < 8 x D J b t M K n m N m l & & #   e m "
};
