/* XPM */
static char *result[] = {
/* columns rows colors chars-per-pixel */
"64 64 96 2 ",
"   c #7483BE",
".  c #7B84BE",
"X  c #5D8ACF",
"o  c #5C8DD4",
"O  c #5B8FD8",
"+  c #4B93DF",
"@  c #5E90D7",
"#  c #5593DD",
"$  c #5D94DC",
"%  c #5F99DF",
"&  c #6685C6",
"*  c #6C86C5",
"=  c #6E88C7",
"-  c #6486C9",
";  c #6D86C8",
":  c #648ACD",
">  c #6C8BCD",
",  c #7486C4",
"<  c #7B86C3",
"1  c #7489C6",
"2  c #7C89C6",
"3  c #7387C8",
"4  c #748CCC",
"5  c #7B8DCC",
"6  c #7E90CF",
"7  c #648ED3",
"8  c #6C8ED2",
"9  c #738ED1",
"0  c #7A8FD0",
"q  c #6491D6",
"w  c #6C91D5",
"e  c #6494DB",
"r  c #6C95DA",
"t  c #6599DE",
"y  c #6C99DE",
"u  c #7492D5",
"i  c #7B92D4",
"p  c #7395DA",
"a  c #7B96D9",
"s  c #7499DD",
"d  c #7B9ADC",
"f  c #4E96E2",
"g  c #4F9BE6",
"h  c #5697E1",
"j  c #5C97E0",
"k  c #559BE5",
"l  c #5C9BE3",
"z  c #509EE8",
"x  c #6497E0",
"c  c #649BE2",
"v  c #6B9CE2",
"b  c #739DE1",
"n  c #7C9EE1",
"m  c #5FA0E7",
"M  c #5BA1E9",
"N  c #64A0E6",
"B  c #6BA1E6",
"V  c #64A1E8",
"C  c #6AA4E9",
"Z  c #74A2E5",
"A  c #7DA1E3",
"S  c #8485BE",
"D  c #8A86BC",
"F  c #8F88BF",
"G  c #9288BF",
"H  c #8287C2",
"J  c #8987C1",
"K  c #8389C5",
"L  c #8B8BC5",
"P  c #838DCC",
"I  c #8A8DCB",
"U  c #918CC6",
"Y  c #918ECA",
"T  c #8390CE",
"R  c #8B91CE",
"E  c #9392CD",
"W  c #9B91C8",
"Q  c #838FD0",
"!  c #8393D4",
"~  c #8A94D3",
"^  c #8498D7",
"/  c #8C9AD7",
"(  c #8296D8",
")  c #8997D8",
"_  c #849BDB",
"`  c #8A9BDB",
"'  c #9196D3",
"]  c #9299D6",
"[  c #929CDA",
"{  c #87A0DF",
"}  c #8BA0DE",
"|  c #93A1DD",
" . c #98A1DD",
".. c #819FE1",
"X. c #82A0E1",
"o. c #8AA1E0",
/* pixels */
"N B C s r e l M M m w < 9 e l x v a R T p a a s w q @ > 8 q e O O q e e : : 8 w r r u 2 5 u u u s u 9 r w e M M % # % e r t c N ",
"c B v v 8 e l m m c p < 9 j j x B s E ! p r s s r e @ 8 7 w e O O w w q 7 7 : 8 e r 6 2 4 w u 4 u w 9 w u w e M % M % t N t c l ",
"m B v s p e l l m c p 5 u e t v B d / { p r b Z b t e 8 w w e e e w w e 7 O q r r r 6 4 u i 5 2 9 u i p u w t t N t t t N l l m ",
"V c v b y e $ c c v u 5 4 4 w u 9 d / / i r s b s s r u w 8 9 q r w r 7 7 w w r r r 9 5 5 P 4 4 8 u u r t w $ $ t r r y l t t N ",
"p p p p y q 7 w p r 4 6 2   . 6 6 d R L K 6 6 R Y L K 4 0 4 5 = ; 3 8 ; ; 9 0 9 w u 9 2 2 2 4 = = = 4 8 q 7 q 8 w w 9 w t 8 6 p ",
"s s v p e 9 0 0 ^ T T K K 4 2 2 I R W U F K L E E T 6 2 6 T P 5 0 5 0 5 3 3 0 0 i 6 6 5 I 6 2 2 2 . 4 2 0 8 u K ! i u u p u i r ",
"b b b b r 0 Q 0 ^ ~ R K D 4 2 2 4 i i 9 w 9 9 6 6 ! i T T E ' ~ a b i i i i i a d a d 6 T r 0 6 4 2 6 2 9 u 6 R ^ r p p s b r y ",
"v v x x e 0 5 8 w 6 2 2 4 = = 4 4 4 w e @ 8 8 8 u u u 6 2 T R ! u r p u 9 u u u u u 9 2 u $ = 1 : = 4 5 1 4 w T i w 8 8 u r e c ",
"v s s r r i i u u i K 2 u 0 6 u u i s t e 8 q w u u u 9 P I ' i u x w p p u u u w u 5 , w @ 9 9 7 6 i 6 i 6 u ~ _ v t w u p y l ",
"e y y y u T P u u 5 K 6 d d ! i 6 a d y r u u a ^ s u d i Y E ! u x p b p a a d u i T 9 r t u 6 w u a i { i u ^ _ s w e y s y c ",
"0 i i ! i R T 6 5 J T u d i T i i i 6 a u u i 5 T 0 w p u T F S 3 : 0 Q 6 6 ! T K R 6 p s y 6 6 w w w 6 a w q 1 5 9 > w p u P 2 ",
"K P T i ! T T d p s v v B Z b y v b b b B y r 9 0 e $ e w 9 < , - X 8 9 u 4 i u 4 w e t t t v r w u u s s u u . < 4 > w s T K < ",
"> u u d 6 2 6 u t t N N v B y t v B Z Z B B r 0 w % % % $ > = : o # 7 4 K K i u 7 w e e % t y r w 4 i a s u 4 2 2 w q w y i 6 8 ",
"7 q e w w 4 4 w t q e e e r w w w s p r w u 4 1 8 % @ @ @ : & o o # O > 4 5 u w q w e @ % % r w w 6 6 i 9 4 =   = 7 q @ e w > 7 ",
"w w r e q 5 6 u y r r w r r u w u s p s u u 6 P u q q q : 1   > 7 $ 7 4 4 9 p w w q e e t t e w w = 9 4 4       = : : 7 w 0 4 8 ",
"u e e t r K 5 u r u u 9 w p p u p s p u u a R R a u : 8 w 2 < 5 9 e 9 4 4 5 8 p a u w r y v r 9 9 6 u u i 9 > 2 9 : > w w 6 6 6 ",
"d 9 w r u Y T i 9 0 5 4 9 u a 0 i ( ! u u ( ! ~ i 9 = 1 4 2 < 2 6 w . 6   4 9 9 u i 0 u y r u 6 u i s d d u u . 6 w 9 u u 6 6 6 ",
"T i p u i W R 6 9 0 P 0 0 u ! ~ ! i u u u ..n ( ! 6 4 2 2 4 < <   9 .   4 6 u 4 9 6 6 s s s d ! 6 u s 6 i i 6 6 i u w u d 6 6 T ",
"6 6 i i 6 W R i w 0 0 9 w u i 0 u 9 u u u n p i u i i ^ { p 6 6 i i ~ T d u a 9 = i u i p p a 2 u u s 6 d u w 6 6 6 4 i a a 5 1 ",
"u u w p u Y 2 u 8 9 9 w r u 0 9 w 9 5 0 u ( i 5 6 ! 6 i ^ i 6 T T ^ / ^ u 9 9 9 & > 0 6 u u 9 2   w r i i s w 6 i s w y p 9 4 9 ",
"w e e w u T 5 u r 8 w q r u u w q 9 0 0 w y w 9 a a 0 0 u p u 4 6 u ^ i w = w 9 > = 9 0 s u u u q q 7 > w w 8 = u w q q q w > 8 ",
"e r e r r T ( s v w r r b n a p x p u u u y y n A _ 0 8 p s d i w w 5 6 9 w a i a i i u s s d i w w t p s w w 4 9 s q @ t r p w ",
"b r y r p ~ d n b p w x v a d p b a ( a b n n ..A n u w b B X._ r w 4 p u u s { d s p r B Z A a p r t s t t q w a v e e y y u s ",
"p 9 r w 4 K i a p a u u p u a ( i ( i ! a ......d s w p b n } ` ^ 4 2 6 9 9 d A d d n b y B A u w w q q t % q 6 i w o q w w 9 0 ",
"u 9 w u K G Y ~ ) ) ~ ( ( Q Q Q ) T ( i _ } { ` ^ a 5 T / |  .| | T / ~ i ! d { ....} } X.A _ ! 9 9 w u a a 0 P P a 7 8 w u > 8 ",
"r x j p P U I i a d d d b n n a p d n Z Z { A n s r u ^ o...o.` } a _ / ^ ( d X._ ` } } A A A u w y c s u a i Q 6 p % % t e 8 u ",
"e w O w 5 D K 0 w p p s b p p p p s v v v b B p y s d ` _ d ) ` / ^ ^ E R / ^ ) i ( ^ ` Z n s 8 w t x p p u 0 K 9 t % % t r 0 w ",
"w 7 7 O : S H 9 w w u y x w w w r r v t y u w w e p s s a p ( Q R T ! R R R / ~ T 6 ! ) s b r > q $ x y p r 8 3 1 t $ $ $ q 8 4 ",
"y w e r 8 2 2 9 u u w x c x w p s p v y y r w q e r r p p p I R a u p a u i a i 5 Q ! u p r w 9 y l x p b r r Q 0 r v v t w 6 5 ",
"u 7 w u 8 .   4 8 4 9 q e e 9 9 9 w w u > w > 4 u u u i 5 P L P 0 0 0 0 ! i i 5 5 H H 2 4 8 4 4 a s w i u u 0 Q Q 9 p p p 6 K 1 ",
"4 3 4 9 3 < . < 5 P H H 2 4 0 5 2 2 4 5 4 1 , < P 6 i I L U I K I I ~ R I ~ ' I P 2 S H < < . H I P 5 K 4 5 Q I 5 0 5 5 P 2 2 1 ",
"9 9 9 0 9 , , 3 0 0 P K 5 4 0 0 T P i i 6 5 2 K I ) ) R Y R Q Q ! ! ~ ~ ) ) ` ` ! 0 K I Q 9 5 Q ~ Q Q P 5 5 5 K 5 9 u ~ ~ i 4 u ",
"u a ..a 0 3 3 8 p i Q Q 5 0 5 K H 5 Q u 4 2 < K I ~ ) ' ~ ! ! u d b n ( a ....a p p 0 P 0 e 9 9 ( ) ) Q 5 5 3 < 4 u d ~ ) ( 9 9 ",
"( i ....) P 5 9 n ) ) ( ! 0 5 5 5 5 0 u > < 2 P ' ..[ ' ) [ ......n ......n ....s a Q Q Q e 8 9 9 ( R Q 5 5 3 2 5 .._ / ....a 9 ",
"a i n a a 5 3 w a ( ..( Q Q I L L Q ~ u 4 H H L E [ [ ] ....) _ n Z A ..n n ....a a ( ! 0 q 8 u a ) ~ I 2 3 5 5 0 a ) ) ....u 9 ",
"0 0 u u 0 3 ; 8 p ! i a 0 2 2 K 5 4 u w > < 2 K I ) ' ' ! ) ) ( n b b a b a n b p a 0 Q 3 : ; 9 i ) ~ H < 3 3 2 5 Q Q a a p 9 9 ",
"9 9 u u 9 3 ; : w u w u > > > 8 8 9 p p 8 9 9 u u n ) ) ) ~ ) ) ..b n a n n a a p p i ( Q 0 P 3 5 Q P <     . H J L K 5 u a 3 4 ",
"w u u u 0 5 ; : e w 8 > ; : : w 9 a p p u b p p n p n ) ..( ) ....b a a ( n a b b p a ..a x p 8 ; 3 3 9 ;   < K K 0 8 5 9 9 4 0 ",
"0 9 9 9 3 3 3 8 r 9 0 3 3 8 - 3 3 u 9 w u p p p p u p ( a ( ( a n b b Q ! i u v x r 0 ~ ( x x O o 7 O 7 : : 9 0 9 > 8 > 8 8 > 3 ",
"3 u 0 u 9 3 5 w p 9 0 H ; : > > 9 9 w q w w v b e e b a a p a a a v p 0 5 u r v r w u I p h x e 7 7 O q 8 8 e > 8 : : > u u 8 3 ",
"i ! 9 0 9 P Q 9 u u 0 H 8 u 8 8 8 r w e 7 7 e v x e x b u w w w r x 7 > 3 8 r x q O 9 H w j O O r x x e 7 8 r p p p 8 u 9 9 8 9 ",
"a a 9 0 9 P Q r b u Q Q u p 8 8 7 u 9 7 7 - 7 8 e q w w 7 8 > 8 8 q 7 3 3 3 8 w 7 ; < 3 w x e 8 w x v v w u r p p b b u 9 4 5 0 ",
"Q R K 2 H I Q i i I 0 ! a u 9 u 8 9 4 8 7 - - - 8 8 w w 7 8 < 3 4 8 9 3 < 3 9 > 3   3 0 p x p w w u p 0 > 9 9 0 Q a u 5 0 3 L I ",
"~ Q Q Q Q I I Q Q i a u u 0 0 0 0 0 P 9 8 8 > ; 3 8 9 4 9 0 5 H < 5 0 5 5 0 Q K . < 4 ( ( a ( ! 0 u p u u 0 5 H Q ! ! 0 Q Q P Y ",
"a a Q ) Q Q Q 0 b a p p p a u u u i I i p u 9 9 ; u u u u p u 0 0 9 0 I I Q ~ 0 3 a a ..a a ( ( w x x v v v x 8 8 b p p n a Q Q ",
"x b b a b u 9 w x u p x y u 9 p i i I ~ 9 u 9 9 : > > u p p 9 4 9 8 u 9 I ! i 9 9 ......n n p p x x v v c c v 7 O j w r v b 0 a ",
"p b b s v u 9 8 w u b w w 9 4 ( i T T ! 0 0 9 4 : : > 3 > w 4 4 9 8 w > 3 5 9 > 0 ! ( ) n v x x j c V v c j j q j k j x b a Q i ",
"b b n ..b a a r b r p p b 9 i i ( / ~ ~ i 0 i a u 9 9 > 9 u 0 ! 0 p b u 5 I u ! ( ) ....n v v x x c C C c x O x l k k r b ..Q ! ",
"p b ) a y 9 9 w v x b x v r r r n d ..b p v v r e r e t t e 0 u p s B y 0 T i d A { { A C N c l l c k M M # # % % k % t u i T 6 ",
"9 ( Q 0 9 3 9 9 u u u u u 8 4 u i ! 0 0 8 8 p u 8 8 8 8 9 9 5 i 6 a s 0 = 2 6 ! ^ { ^ { Z y y r x x x x @ @ q q q e t e i 6 2 5 ",
"p a R 0 8 9 9 a a u 0 0 u w u u u ! u w w w y a 4 u 9 u 9 u a u d s B p 8 4 s d ^ { ^ d v t e e e w e e q q w r w r r r a s u r ",
"x r p O O w p p r w 5 3 e x x r b Q i x l j e 9 9 u u 8 9 r u p p r B t q 7 r s i i ! s t t % q e q $ $ q q q w % % % l % c % % ",
"j O q # + q q q q : , : $ O e q x 9 8 x j j $ q 8 4 - > : o q q $ @ # o o X e w 4 8 0 8 % $ % $ q e t t $ 7 q e # g z # M l # # ",
"j j q # f O w e q 7 * : O x q O q 9 8 O # j O q u 0 7 o o o o O @ # # o o X q w > 8 8 q $ # # $ e e e e t $ $ t M z M % m M z M ",
"# O O h f e p r e 7 > X O 7 7 w u u u w 7 7 u r a ! 8 : o $ q o O t $ q @ 8 e r u 8 = 8 $ % $ $ q e w y e q t v % M k M N m k k ",
"e q w w O 9 0 a u 4 3 , ; ; 5 0 ~ ~ Q Q 3 5 Q ( ~ ! ~ 5 2 5 9 9 9 u u 6 2 . 4 2 4 4 1 . 5 r w w w r p p y r y s v # % B b v e t ",
"p p u 6 8 u d d ..a 5 5 3 3 5 a ( ~ Q Q Q 0 i ( ! i 9 , , 3 3 9 4 0 0 4 < . 5 0 4 5 2 4 6 u y r s s p B v y b Z N c y d n s y y ",
"r e r > 7 e y v v x 9 4 9 9 r r p a i a u w w r p e w : ; 8 r 9 9 u p i P 5 9 r u u 5 5 u w x r r y r t % % t C N % r p y B N t ",
"x x e w 7 q t c c e 8 , 8 7 7 e x p u r e 7 r r w e e > > 8 u 9 9 u u 5 K 0 u r w w u 4 u u p v t t r % c l t C N y r b v y y N ",
"v v y e q e q r x e = , > 7 7 e e r 9 u w x x b p 7 q 7 : w u 2 P 5 5 2 3 u ) a r q u u u y r a s y r % % l t b s s y y B B N B ",
"e b r e $ % t t r q 4 1 w w q q r w 9 9 e q 7 b u o O 7 7 8 0 P 5 5 i 4 8 p a a 0 w w u p u p d d u 6 w y t y s d p r y y B b s ",
"r e x v $ $ $ t t q < 4 9 w q 7 w w 8 7 7 7 e w w 7 X - 7 9 P 2 9 5 i u > p u p r t w 0 p d i 6 u u 6 u u t w s p r q r B s s s ",
"r y b r q w r y e e 5 K 6 6 4 5 Q 5 5 9 8 u u a u 7 : & ; 3 4 > > > 4 > - = 5 ! p p 6 Y T ! T ! T T 6 u u y y y y u > r s s r y ",
"c v y w : w e l N c 4 S 5 w w s u Q 5 9 w u p b p x 7 : 9 w w 7 q 7 w u 8 > 9 a i p 6 L T i i ^ ^ i 6 u u w t B t % e w r r t t "
};
