/* XPM */
static char *result[] = {
/* columns rows colors chars-per-pixel */
"64 64 72 1 ",
"  c #9D9277",
". c #9E957A",
"X c #9D9A7E",
"o c #BA8F7B",
"O c #A3947A",
"+ c #AC957C",
"@ c #A3997E",
"# c #AC987F",
"$ c #B3947D",
"% c #BA937E",
"& c #9C9E80",
"* c #A49D82",
"= c #AC9D83",
"- c #B49780",
"; c #BC9681",
": c #B49C84",
"> c #BB9C85",
", c #B79F88",
"< c #BD9F88",
"1 c #9DA184",
"2 c #A3A285",
"3 c #ABA186",
"4 c #A5A589",
"5 c #ACA58A",
"6 c #A4A88B",
"7 c #ABA98D",
"8 c #B2A087",
"9 c #B4A38A",
"0 c #BCA38B",
"q c #B2A98E",
"w c #BBA88F",
"e c #ACAE91",
"r c #BFA790",
"t c #B5AC91",
"y c #BCAA91",
"u c #B5B094",
"i c #BBB195",
"p c #BCB398",
"a c #C39783",
"s c #CB9785",
"d c #C39A86",
"f c #CA9A87",
"g c #C49E89",
"h c #CB9D8A",
"j c #D39686",
"k c #D89687",
"l c #D19887",
"z c #D59788",
"x c #D99688",
"c c #D39D8C",
"v c #DB9D8D",
"b c #E29D8E",
"n c #E99D8F",
"m c #E39F90",
"M c #EA9E90",
"N c #C3A38D",
"B c #CBA28E",
"V c #C4A98F",
"C c #D3A18E",
"Z c #DAA08F",
"A c #C4A790",
"S c #CCA690",
"D c #C3AA92",
"F c #CCAA93",
"G c #D4A591",
"H c #DAA491",
"J c #D3A993",
"K c #DAA995",
"L c #C0B196",
"P c #CBB197",
"I c #E1A08F",
"U c #E2A291",
/* pixels */
"utww0VSBBVBBdNhlcGBNABBhSSA000033,000NANCSCCVBBCZGBBNAAAgSAyyttt",
"tVVNNVSFJJBChdddBSAAAdgBgg00098533500ANBVGCCBNVBCZBBB0AA0ryyytte",
"tNBBNBSJSGBChhddgASS<>>><g<,9,857q38qw0AFJCCCCBCvZZZCgSAASrtDytt",
"VNBBBBBCCHCCcfagNyAN<>>><gg0q8q753qqqqNSSHZZkCCCvvIvcAggAA0DDDyt",
"NNBhdBBCCHCJBdfhNrr0g<,><gg0q377797999NBFGCZZCCZZvvGvS<<g0gADyyy",
"ANNghgBBGHHCBgBBN00ggg>,>,<g0957799990BCJGCZvCCZZZvGGGSA0NABAryr",
"DVNBBBBVJKGZCBBBAw,d:<,,>>>,9857qqq9#VBCCHZZZHKHGHvGSSSSAr000Arr",
"VFFJBSFFFGZZcCCBS,-;-:09g<,=933379w#VNClcCZIHUKUHUGGGSGGAAr0g000",
"DFJJJJJSFBGvcvJSSd;>::9009333*4467#0NNhlljjIHUUUmmmGJSJJGS0,ggrA",
"FKKUHHCBBBhhcvGGhsd>,8090q843*21@79%%gfajjjZIIUUMMmbHKKKGKSrNggA",
"JJZcZCCCCBN0hGGHhhg,,088,9,34**247#<adssllslZIIImmbvbHKSCSGSAg<A",
"BCcvccccBBw0ghcGSghg<g090w0q7111@q#%%aaBfhgSZZbIbMbbbmUGCGHZSSSS",
"Nhzzlhzlg<<<hhhGSGGSBNAA009874147@#Nd%NddNBBGHZxbbxbvvvcCBGCvvSA",
"NdssfhccSBShhhhhSHccCCSSd00553446@#%%$%$#VNVBBGZZbZbbbbbZGGGGvBA",
"NNgffBCCSCcGhSccJGHvvJGJhN983333@@#@88#8#qVBVCSCHZZmbmmbbZZCCZvB",
"CgghcChgSCSSSGGGSFKHvHKGAB05q883@###@#$##t%VCJJGGGGZZbmUHJGBCZHH",
"HJSSBBBBSJAAFJGBADFHbHKKBN0qq:33=++@XO++=9=<BSCCcCcbvmmHHHGJBSSG",
"SSSSAAAADDDiPFAAryDCZmmHCBBN9=====#XX@$#3339wBBhczccvvHHHJSBNADD",
"rSSGSBBNyDLyPSBBAASCZUmbcCBCh:===*@XXX@#222200hfhzzxvvHGKHFNSSrr",
"0NSgBghgyryDSScBBBCBCZbZvZChf>==2*2XX2*@21@*:%afhszxvccCZZCcch<w",
"r0rrNBg<rAASCCcccvHcBcZbIUGBf>841&@XXX@XXXX@#%oagBhccZGvvcCccCAA",
"0>><<hBg0DNhczxcvvHGJNSHIUHBd>52&@@X1X@@@. OOo%a<gdhSSGccvvvccSh",
"<>;>,rNBNA0BhkkxvvHKKGFJZUZcf0761*#@112@@  O+o%aa<NNSSSBZvZZHHGB",
"Ng>,:,AAA0NNhccvvcGKHSAABZCBhgq753=2212*@.  O$%->,0rABAABJJCJGSN",
"gg,0<rNBr<AAhhGZHvvHZBNVghcBhBw953:=22*##OOOO$$<>89VNN0VNSSSSFSB",
"N,0,<r><rrrgAScSSGGGJFFDBBBNNNqq98:==*=##+O$#$88>8900N0VNNNBBV0V",
"r,<0<<>>,<gghhhBhBJGSFPPDytqq0w5788:=##+#++$$=#$$889$8VVNNNNN00N",
"99999>,,:,<BgghgBSSNDtLDANq43=5099,:$$$$$+$$#33$$$833@#qN<>89#00",
"q9957,,,:99<ggghgAANrtptNN00=-8y0<<-$%$%%%::=33$$$935X6e0009%00w",
"775=4*=,=3=,<A<<Nrtwwttt0NA,-$=5w00:$$:%-%$8899$$#33@6@@#0%8w807",
"77=*4*==44=,,ywy0yqw98750N00>-*7q0083:000988q99:$#389#@@@#8q8877",
"e7744*=*=4*=,00w0yw0,850><0gd>3770g00><<99999w009988##6@##59q77e",
"e739q5##@3@$8990000w8990<<90>N8733><<0<<95990w0000w8=322#=337377",
"759959##3@@333#8,99q38900089800q42$<N0N<9750w9q0ww00=323=3244477",
"qw08998#2@2333#$$:88::%-%%$$>8N0q8$$0NN0quqwwwwNN00N:=33::243377",
"w990$00071@28$$$:33=:$$%$%%%$>8w98$:80NNiitwVVNNdNddN99:8:83389q",
"99$980>%9@@33#$$+=*=+$$$$$$$$890993=7q0ADpt0NBBBhdddB08:$>083399",
"N0NN0NBNVN88880$$=#:%++++##::837q008qtDDPPFSCBBBBhhhBd0><>g>0000",
"VVNNNNNN0NN00980,:$:++####2*:885qqNNNBBNVPFJKCCBBCBNNN0w0>000>0N",
"gBFCJBBBN0NBN98$>$+OOOO@#=22#835q0BhBhcgNNBHZZCZCChBNNNNNNd000>N",
"NSCJGGCVVNNBN98>:%$O  .@2@162#347q<fCZZCNABKKGZZccchN0NABN8:><<N",
"BGCZZZZZBSGVNNd>%oo+O .@@211@#21670fBHZZJFCHHGvxxzllhrAANNN,>;a<",
"BBCZZZZkCCCBNNdd%oo+  ..@@XXX@@X43-shHUIZJVCGvvvxxzcBSA0gBhg>>>0",
"VNClllCZZGCCklfBda%+*@XXX2XXX@X1388shGHvbZBBGvGvcccBSArr0gBN00ww",
"wNClCCZCCCcxxzfhfa;:*X11@@21X2@228>sBCZvvbZCCCBhCcBSDryr<hhgBBN0",
"wVNBBBHZKCZxxxzfhhg9=242@#@XX@3=3#$BlBCcvIIZBFDNBBAPLiryABBSFJS0",
"V0NNBGJZKZvvzccffhAr923=#$@XX##338#9NBhCZUUZCAyDASFPyyDAABNSSFSS",
"GSCVSJGHUUbvZZccCJJS>:8=++OX@###3#95qNNBKZUZHFDASSJFDASSBAASSSGH",
"HGCChGHHUmbvvHHGGJJBB89=#+#*@##238=q30NSGHHbUJFSCZSSACCAhBGhhghS",
"GGZZGcGvvMbbvHHHJCBBhN93=::=##@@533389ghSGGcvHGGCCBBCCCSCChffggA",
"NCZZGGGGmmvbbmvHZCGSNNN::-:%$#@2444350<gSScCcGGJchchhBBBCzhhsfgr",
"NBvCGGhvvvvvxxbmZZGGBBNgfa;;>$3242258q90AAAShGGSBchgN<<Nhzhzzzhg",
"NVBJvCBcGHmmmbbbUnZHBBhhha%d>:7211445ww000g<ghNBJBcg0rAcccCvvccS",
"BNNNSGJCGGHZbbbMUUIICfssffd%%8341*&2309,05,,>ghBHZCc<rSccCCvZGGG",
"VNBN0SHGKKKHmmMMUUUIZjjjshdd>:364**34890,,,:>dscJGZccBBSBGKKKKJF",
"V0Ng,0JJGKSGHmmmUUUZIkklslNN0:7444*33=9999,:->>SJGccCCSASGJGKJFF",
"r,rN,rAAFKSGGGHmKUKUZZZClCN009972389,:><00>-;-,SSGccHHJFFFCSGJSD",
"DrrNrrrASSSSGZHKHGKIZZJGCBV08qqq7330:,>>,,,>><wASBScHKHJSAAAAADD",
"ryrNhrr<ASGHZHZZZCCvZCGGCV098qqq773,<<>>:,gdg00ABBgSGHHHShAhBBSA",
"qyyANgN<,gBccZcZZCCvvZGFBBw5955q773q<gg>>,>gNrr0gfggGGvGCShfhggr",
"yyrLrAANBAAZUmcZCCCvZHJFVNwqqq877q890<g<>>>0ADrAfshcCZGGGSShcBAr",
"tyrDtyAABg<CZZZZCBCCCHJBB0wqq53358989ggg>>>gASANd>shCBSJGSBNNBAy",
"tttytrNrrA0gcSGGBVBBCCGFBVV00353598000gNNgdgNAShg>dgBCSJJFANArru",
"utqyrrAgAAAggBCmCBNVCGGBVNV00083300000BBhBNAAhGcchhgBBBVBBArryyi"
};
