/* XPM */
static char *_95f5a94278e4492e1520e31b947ee0fHo8HA7FuFJivhqYl[] = {
/* columns rows colors chars-per-pixel */
"64 64 142 2 ",
"   c #7D766C",
".  c #7F786D",
"X  c #7D7973",
"o  c #817A6F",
"O  c #837D72",
"+  c #868176",
"@  c #868279",
"#  c #8B857B",
"$  c #8D897E",
"%  c #716F8E",
"&  c #7A7582",
"*  c #76748E",
"=  c #7F7D99",
"-  c #817C86",
";  c #837F88",
":  c #827F98",
">  c #898580",
",  c #8E8A83",
"<  c #89848B",
"1  c #928D83",
"2  c #928F8A",
"3  c #959086",
"4  c #9A9387",
"5  c #95928B",
"6  c #9A968D",
"7  c #9B988E",
"8  c #858396",
"9  c #86839A",
"0  c #89869B",
"q  c #8D8A9C",
"w  c #918E9E",
"e  c #969191",
"r  c #9A9792",
"t  c #9D9B93",
"y  c #94929F",
"u  c #9F9C9A",
"i  c #A19F96",
"p  c #A59F98",
"a  c #A2A097",
"s  c #A5A199",
"d  c #ACA69B",
"f  c #AEA89D",
"g  c #B0AB9F",
"h  c #8D8BA2",
"j  c #928FA1",
"k  c #9592A3",
"l  c #9996A5",
"z  c #9C99A5",
"x  c #9694A9",
"c  c #9997A9",
"v  c #9D9BAB",
"b  c #A29EA5",
"n  c #A19EAB",
"m  c #A6A2A6",
"M  c #AAA7A2",
"N  c #ADABA5",
"B  c #A5A2AD",
"V  c #A9A6AD",
"C  c #ADAAAC",
"Z  c #B1ACA0",
"A  c #B1AEAC",
"S  c #B9B2A6",
"D  c #B4B2AC",
"F  c #BAB6AC",
"G  c #BEB9AE",
"H  c #A6A3B2",
"J  c #A9A6B1",
"K  c #ADAAB2",
"L  c #AAA7B8",
"P  c #ADAAB8",
"I  c #B1AEB4",
"U  c #B1AFBA",
"Y  c #B5B2B4",
"T  c #B9B6B4",
"R  c #BCBAB3",
"E  c #B6B3B9",
"W  c #BAB6BA",
"Q  c #BDBABA",
"!  c #C1BBAF",
"~  c #C2BDB3",
"^  c #C1BEBC",
"/  c #C5C0B5",
"(  c #C8C3B7",
")  c #C5C1BD",
"_  c #CAC6BC",
"`  c #CEC9BD",
"'  c #D0CBBF",
"]  c #BDBBC0",
"[  c #C2BEC1",
"{  c #C6C2C2",
"}  c #CAC6C1",
"|  c #CECAC3",
" . c #CECBC9",
".. c #D2CEC4",
"X. c #D1CEC9",
"o. c #D6D2C6",
"O. c #D8D4C7",
"+. c #D6D2C9",
"@. c #D9D5C9",
"#. c #D9D6CD",
"$. c #DBD8CF",
"%. c #DDD9CE",
"&. c #DCD9CF",
"*. c #D0CFDA",
"=. c #D5D2D0",
"-. c #D9D5D1",
";. c #DDD9D0",
":. c #DDDAD0",
">. c #DEDBD0",
",. c #DFDCD1",
"<. c #D2D1DD",
"1. c #E1DCCF",
"2. c #E1DCD1",
"3. c #E2DFD4",
"4. c #E5E4DC",
"5. c #D7D6E0",
"6. c #D8D7E1",
"7. c #DCDBE2",
"8. c #DCDBE3",
"9. c #E0DFE3",
"0. c #E2E1E0",
"q. c #E6E6E1",
"w. c #EBEAE6",
"e. c #E7E6E9",
"r. c #E8E7EB",
"t. c #EDEDED",
"y. c #EFEFED",
"u. c #F0EFED",
"i. c #F3F2E9",
"p. c #F1F0EF",
"a. c #F6F4EC",
"s. c #F6F5EE",
"d. c #F1F1F0",
"f. c #F3F3F0",
"g. c #F6F6F1",
"h. c #F6F6F2",
"j. c #F7F6F2",
"k. c #F6F6F3",
"l. c #F7F6F3",
"z. c #F7F7F3",
"x. c #F8F8F3",
"c. c #F8F8F4",
/* pixels */
"X u R Y Y T T R R R D D T W R R Y T ^ ) T T T D T D D R T D r # , M D R R R R D Y R R R R T D D D D R D R D W R R T D D D D 5 X ",
"s 4.i.s.f.t.t.t.6.r.f.z.z.z.p.z.l.l.l.l.l.p.6.8.p.4.t.f.x.s.| # u q.z.t.p.y.p.x.x.l.z.z.p.p.z.i.z.z.x.z.z.z.z.x.f.t.y.f.f.z.| , ",
"N :.o.{ U H E { P W +.+.{ =.%.2.2.:.{ } o.{ c P [ x H U =.3.' $ s :.@.} E U { #.4.2.#.+.} +.4.%.:.%.X. .%.:.,.,. .L L [ $.3.` 3 ",
"i ~ K H J P { Q W ^ ] W K Y { ^ ^ ^ H P K Y J Y Q U H H K | / $ i ) W B B K K U | } Q ^ v ^ @.$.@.+.H K ^ Q | E n v v v Q %./ $ ",
"i D l K Y W o.o.W Y E E E E Y n K E E I n n n [ @.[ I U H E ! # r R B B E U Y H K Y W U J Y Q [ Q Q K K Y I K v n K I E H ) / $ ",
"i D k V J V | @.o.R ^ Q +.@.o.| ..O.O.[ P ^ | O.@.T n E H P G # t N z B I K I E [ ..@.o.| ) J T J Y ` | +.+.} Q K n B C K U ~ 3 ",
"i D z R _ } @.o.o.` o.@.@.@.@.+.@.O.@.@.@.@.O.#.@.` ^ o.W W R + 6 D n B Y J E @.@.@.@.@.@.@...@.X.+.@.o.@.o.@.@.{ H C U K R ~ $ ",
"u D Y ) @.@.@.o.o.o.@.@.@.@.@.o.O.' O.@.@.@.@.O.o.o.o.o.{ | R # 7 ~ R B J ^ o.@.@.@.@.@.@.@.%.@.@.@.@.@.@.+.o.@.@.| U P ^ O./ $ ",
"t q B E | @.@.@.@.@.@.@.@.@.$.@.O.| o.@.@.@.@.O.o.O.} E P n M # 7 ~ _ Y J } @.@.@.@.o.@.@.@.@.@.@.@.@.@.@.@.@.@.@.+.E K +.@.~ 3 ",
"i z B Y E o.@.o.@.+.o.@.@.@.@.o.O.O.O.@.O.1.O.O.O...Y b E n Z $ 7 R _ T K X.@.@.@.@.@.@.@.o.o.@.@.@.@.@.@.@.@.@.@.+.^ E @.@.! $ ",
"a G R D I } @.o.o.@.@.o.@.@.@.@.O.O.@.O.O.@.@.o.o.o.n k ^ | ! # t / ) V T @.@.@.@.@.@.@.@.@.@.@.@.@.o...@.@.o.@.@.o.o.Y X.@.~ $ ",
"a ~ T Y K { @.o.@.@.@.@.@.@.@.@.#.@.@.O.#.@.#.1.O.| n H E o.! # t ~ ^ D R @.@.@.@.@.@.@.@.@.o.@.@.%.' ` @...o.@.o.o.| E o.o.~ 1 ",
"a R N B Y o.o...@.@.@.@.@.@.@.@.@.#.@.O.1.@.O.1.O...T n P ^ ~ $ t R m l K +.@.@.@.@.@.@.%.@.@.@.@.%.@...@.@.o.@.o.@.{ K I X.! # ",
"t R D z ^ @.@.o.o.o.@.@.@.@.@.@.#.@.1.O.O.#.O.O...o...V Y | ~ # 6 ~ R K D _ @.@.@.%.@.@.@.@.@.@.@.' o.` o.@.o.@.@.@.] T [ +.! @ ",
"a R _ C W @.@.@.@.@.@.@.@.@.@.@.O.@.O.O.O.@.@.@.O.O.| I o.O.~ $ t ~ _ ` J I @.@.@.@.@.@.@.@.@.@.@.o.@.@.@.@.@.%.@.| K | 1.@.! $ ",
"a ~ _ B C | @.@.@.o.@.o.@.@.@.@.O.@.@.1.#.@.O.@.O.o.^ n | 1.~ 1 t ~ ` ` K T +...@.@.@.%.@.@.@.@.@.@.@.@.@.@.@.@.@.| K | 1.@.! 3 ",
"a R _ C J | @.@.@.O.O.O.O.+.O.O.@.@.%.O.@.@.@.%.O...~ n -.1.~ # t ~ ' ' K I ` o.o.@.#.O.#.O.O.#.@.@.@.@.' @.@.@.$.' K | ,.@.~ $ ",
"a ~ _ T W @.@.@.@.@.O.O.O.O.O.+.O.@.@.@.%.O.@.O.O.| | J | #.~ $ 6 ~ ( O.I Y o.O.O.O.O.#.@.O.o.O.@.@.o.@.o...@.@.$._ J | %.@.! 3 ",
"a ~ D l Q @.@.@.@.@.@.O.O.O.O...O.%.O.@.%.@.%.O.o.' o.n P o.~ O r ~ T K Y | o.o.@.O.O.O.@.@.o.@.@.@.O.@.@.O.O.@.@.@.^ Q { o.! # ",
"a G B n K o.@.@.@.@.@.@.@.%.@.O.%.O.#.@.O.@.O.+.O.o.^ J Y ^ ~ O t / n b K o.O.@.@.@.O.o.@.O.O.@.@.@.o.o.@.+.O.@.@.@.) K K ..! # ",
"a / D J n ^ @.o.@.@.@.@.@.@.@.@.@.@.@.@.@.%.O.@.@.o.n H Y ..! $ r ( ^ Y ^ o.o.@.@.O.O.O.O.O.O.O.@.@.@.@.@.@.@.@.@.@.X.W X.@.G $ ",
"t R T C n [ @.o.@.@.@.@.@.@.@.@.@.%.@.O.@.@.%.@.#.o.n k ^ | ! O t ~ ( V W o.O.O.@.1.@.#.@.O.O.#.@.@.@.@.@.@.@.@.@.@.o.D | @.G $ ",
"t k z J J ..o.o.@.@.@.%.@.+.O.@.@.@.@.@.O.@.O.O.@.O.E n E n V 1 i ~ ..R K | 1.O.O.@.#.1.@.@.@.#.o.O.@.@.@.@.@.@.@.@.) E @.@.G $ ",
"r q n D } @.o.o.+.O.O.@.@.@.@.@.@.@.@.+.O.@.+.%.o.o.X.^ W j p $ i ^ _ A b ^ o.@.#.O.O.o.@.@.@.O.' o.' @.@.@.O.O.@.@.^ E @.@.! $ ",
"t D C ^ @.+.@.@.@.@.O.O.@.O.@.@.@.@.@.@.o.@.@.@.O.o.1.o.^ ^ ! , 6 ~ F k v E ` ..O.O.O.o.@.@.1.O.@.@.....@.@.+.@.@.| W E { @.G , ",
"a D z ^ } _ @.o.o.o.@.O.+...O.@.@...@.@.o.@.@.@.o...^ X.^ P ! O r F l l H v C ..o.O.| o.O.O.X.o...+.@.+.@.@.@.+.} U E Q W [ G 3 ",
"i A q K K B ..O.| Q J K ..+...} | ..O.^ n K } @.O.Y l ^ L P ^ 3 t N q k V x l C ^ _ o.| | ^ n E K E ` ..@.+.{ ^ Y K U E W Y G $ ",
"a N y V I E ....K k h v B K C k n I C z 0 : l } @.^ n J n ^ ^ 4 t R k l K n v j n J I I n W ^ ~ W W I I W I I B H I Y W P ) G 3 ",
"a D m z m B T T K C V V j n ^ T Q W l b b n n A ~ K n c H ^ ! O 6 G A l k c l V ^ ~ Y ~ k _ O...+.o.V C ^ Q ` W H n B B W o.G 3 ",
"5 D G V k y m C 0 z ~ R C ~ ` ` ' ( A A ~ Y : k C j q b ^ ' ! 1 5 S ~ Y n k C ( ` ' ` ( T ` ` ( ' ( W ! _ / ` ` ~ z b Y ` ` S # ",
"+ 6 d d s a d r & e d d d f f d g g d g Z s & - d p p M g f 4 O @ 6 s f d p d Z d d g g d g f d g Z f f d d d d d s s f Z d 4 @ ",
". O O + O     . X . O O O O O O O O O O O O o   O O O O o O O 2 2 O O O O O O O O O O O O o O O O O O o . O O O O O O O + @ # @ ",
", i N D D N D D D M N D R D A D T T D N N D D N D A A A D A e 2 2 s N N D D D D D D D A D D D D D R D A N N N D N N A A D N r , ",
"M q.i.w.y.t.p.t.*.e.z.z.z.z.i.s.z.c.c.c.c.p.<.6.s.t.u.p.s.z...3 i 4.p.p.p.t.s.p.<.0.c.t.t.z.c.z.z.x.x.s.x.t.5.8.s.p.d.d.s.s.+.5 ",
"N $.O.E J J U [ v H |  .Q X.%.;.#.#.[ [ +.{ h v Q x x H { 2.o.O a @.#.E L H U { v J #.} Q | %.%.:.3.| { #.) v E ) H H U ..,.` 3 ",
"a R U v H H Q R K K J J v J ) E Q T w v v n n K Q J c j l ^ ^ O r ) K k n H Q Q I I J V B C { Q { [ v J P Y U Y Q E H J U { ~ $ ",
"a D h n K U o...Y v x v C Y K l B K B n h = x } o.) K B x J ! O 6 A h v H P o.+.W n v B J Y E c B I P C B n J { @.) K I H E ! 1 ",
"a N 9 C C B | @.+.^ P I ..@.o.{ | o.@.^ n I } O.#.E v E k l ! $ t V 8 V H m ..O.o.Q I E ..o..._ _ o.o.) K Q | @.@.W n Y B K G 3 ",
"a A y Q ) | o.o.@.@.+.@.@.@.@.@.@.@.o.@.O.O.%.O.@.o.) X.J b ! $ 7 C k T } | O.#.o.o.@.@.@.@.@.@.@.o.o.@.+.@.@.o.@.o.) | W Y G 1 ",
"i D C ^ O.@.O.@.@.@.` o.o.@.@.@.@.@.@.@.%.O.O.O.O.@.@.+.^ T ! , 7 R K R $.O.@.@.@.@.@.@.@.@.@.@.@.@.@.o.@.#.@.o.o.@.@.#.{ ) F $ ",
"r 8 z C } @.@.@.@.%.o.o.@.@.@.@.@.@.@.@.@.%.@.o.O.@.X.E E w i 2 5 8 z V } @.@.o.@.o.o.@.O.o.o.@.@.@.@.o.@.#.#.O.o.@.+.Q ] v b # ",
"a y l B H ..@.@.@.@.@.@.@.@.o.@.@.@.@.@.@.@.@.@.O.o.Y k I c Z 3 r q k v n ..@.o.o.@.@.@.o.` ..O.o.' @.o.@.O.O.O.o.o.[ J [ v N 4 ",
"i R D B x ^ @.@.@.@.@.@.@.@.o.@.@.o.o.@.@.@.@.@.1...c h I o.~ # 6 R D v k Q | ....@.o.@.@.o.@.@.o.' ....o.O.O.o.@.o.J J { | G , ",
"i ~ K J v T o.@.@.%.@.@.@.@.@.o.@.o.@.@.@.@.@.%.O.| k b P o.~ $ 6 / A B l Q o.@.@.O...o.@.@.@.@.o.o...o.O.@.O.O.@...B I Q o.G $ ",
"a R m z I | +.@.@.%.@.@.@.@.@.o...` o.@.%.@.@.@.O.O.~ n P ` ~ 1 t R n z K ..o.@.O.o.` O.@.@.@.@.O.o.@.' _ @.O.O.o.@.) P P | ~ $ ",
"i R D l ^ +.@.@.@.@.@.@.@.@.@.@.@.@.@.@.@.@.%.@.O.1.X.n Y ..~ 1 t G C l Q @.@.@.@.o.O.| @.@.@.@.@.o.@.@...O.O.%.o.o.o.V Y | G $ ",
"t R _ Y T o.o.@.@.@.@.@.@.@.@.@.@.@.@.o.@.@.@.@.O.O.` P | @.! 1 r ~ _ Y T @.@.@.@.@.@.@.@.@.O.O.O.o.@.@.#.O.O.O.O.$. .I ..@.~ $ ",
"i / _ J J o.@.@.%.@.@.@.%.@.@.@.@.@.@.o.o.@.@.@...| ^ n | @.~ 1 t G / V J o.@.@.@.@.@.@.o.O.o.O.O.O.O.O.O.%.O.%.@.O.) B ..@.! 3 ",
"a ~ _ J B ..@.@.@.@.@.@.@.@.@.@.@.@.@.O.@.@.O.O.O.O.^ l } O.! O e ! ! V J O.@.@.@.@.@.O.o.@.@.@.O.@.@.@.@.O.@.@.@.$.) n ..O.~ 3 ",
"a / _ Y T ` @.@.O.@.@.@.$.@.@.@.@.@.1.@.@.@.o.@.O.@. .J | @.! O 4 ! ! I ^ @.@.@.@.@.@.1...o.@.@.@.$.@.O.O.%.@.O.O.O._ I +.O.~ 1 ",
"a R C l Q o.@.@.+.+.@.O.@.@.o.o.o.@.1.@.@.@.o.o.@.@.' n E | ! # e ! b l ^ O.@.@.@.1.@.@.O...@.@.@.%.@.@.@.@.@.@.%.@.o.K W o.! 3 ",
"t R m v K ..@.@.+.O.@.o.@.@.@.@.o.@.@.@.@.@.o.O.@.@.^ J Y ^ ! # i ! b v ^ [ @.@.@.@.@.@.@.O.@.@.@.@.@.@.@.O.$.O.O.O.{ P U | ! $ ",
"i ~ K n k T @.@.@.O.o.o.O.@.@.@.@.o.@.@.@.@.O.1.@...n H E | ~ $ r ! C n n ^ ..@.@.@.@.@.@.@.O.@.@.@.%.@.O.O.@.$.%...H I E #./ 3 ",
"a R D k 9 ^ @.@.@.@.O.O.@.@.@.@.o.' o.o.@.O.@.O.@.o.H n ^ ^ ~ 1 i F T n c ^ @.@.@.@.@.@.@.@.@.@.%.@.@.@.O.@.O.$.@.o.H H ^ ..~ 1 ",
"t 8 q z v  .@.@.@.@.@.@.@.@.@.@.@.@.@.@.@.@.O.o.@.@.^ n ^ x V o 1 q l n V ..@.@.@.@.1.@.@.@.@.@.@.@.@.O.O.$.o.O.@.+.^ H W v Y $ ",
"7 * q n ) @.@.@.@.O.O.@.@.@.@.@.o.@.@.@.@.@.o.O.O.O.o.^ ^ c b O 1 : b I [ O.@.@.@.@.O.@.@.@.1.@.@.@.%.@.O.O.O.O.@.@.X.Q W x p 3 ",
"i A V R +.%.@.@.@.@.@.@.@.@.@.@.@.@.o.@.@.@.O.@.o.o.#.o.^ ^ F # r A A T o.o.o.O.@.@.o.O.@.@.@.@.@.@.@.@.@.@.@.o.@.@.O.o.[ ^ ! # ",
"i M 8 W _ } @.O.@.@.@.@.@.@.@.@.@.@.o...o.@.O.O.o...[ ..W I ~ $ 6 A w Y ) } O.O.@.1.O.O.@.@.@.1.@.@.@.o.@.@.o.@.@.o.[ ..U K ! # ",
"i m % l n n ..@.+.^ K I +.@.X.| ..@.@.^ K ^ [ 1.o.T n E H E ~ $ t A 9 V V H ..O.[ [ ! K [ O.o.[ [ O.o.^ V ^  .@.@.^ n E n n ! 1 ",
"i C * j n I ..o.Y j h B K Y I v J I Y K n l J [ @.^ I I n U ~ $ t A k H K E ..+.^ H v V ! P K c m Y I B n v L [ @.^ I K c K ! $ ",
"i F l : j v W W V C V V B K [ R ~ ^ n K V C K T ^ I n H I _ ~ # r F n b B V ^ ^ ! ^ L K b ! [ ~ ^ ~ B K I ! P ! ^ I n n J } ! $ ",
"6 S R z 0 0 b A 8 z ) R D ^ ' ' ' ' ! T ^ F : b A j w n ^ ..S O 1 S ! m l y C I : b ~ ^ K ^ ' ^ ^ ' I ! ^ ! q b I j j b ^ ..S $ ",
"# 7 f d s s d t & 5 f f f f f f g g g g g p ; ; d p p p Z d 6 # @ 6 p d p p d i - 4 d d d f f f f d d d g p ; < d p d d Z f 4 4 ",
". o   o O O O X O O O o . O . . O O O O O O O O O O O O O # 4 6 > O o o o o o o o o o o o o O O O O O o o # O O O o O $ O O 1 2 "
};
